<svg width="126" height="29" viewBox="0 0 126 29" fill="none" xmlns="http://www.w3.org/2000/svg">
<path d="M7.09129 19.6455L6.26225 21.992L4.37469 27.44H0L2.82763 19.6455H7.09129Z" fill="#550A9B"/>
<path d="M24.9826 27.44H20.6449L17.9209 19.6455H22.1624L24.9826 27.44Z" fill="#550A9B"/>
<path d="M43.4063 13.6273V27.4694H39.4165V14.027C39.4165 11.7694 37.9953 10.4814 35.5081 10.4814C32.6805 10.4814 30.6967 12.4874 30.6967 15.3594V27.4694H26.6699V7.45389H30.6597V9.68194C32.2068 7.86841 34.1387 6.98755 36.5444 6.98755C40.8377 6.98755 43.3989 9.46728 43.3989 13.6273" fill="#550A9B"/>
<path d="M59.0174 22.6285C58.0625 23.9313 56.6338 24.5901 54.7685 24.5901C53.1696 24.5901 51.9113 23.9313 51.0304 22.6433C50.1865 21.4071 49.7424 19.6454 49.7424 17.5506C49.7424 15.4558 50.1865 13.6866 51.0304 12.4431C51.9113 11.1403 53.1696 10.4741 54.7685 10.4741C58.2771 10.4741 60.3719 13.1167 60.3719 17.5506C60.3719 19.675 59.9056 21.4293 59.0174 22.6285ZM60.1869 0V7.18012C60.1869 8.06838 60.2017 8.94924 60.2313 9.67465C58.8397 7.94995 56.7819 6.98026 54.4428 6.98026C51.9705 6.98026 49.735 7.97955 48.1583 9.80049C46.5151 11.7029 45.6416 14.3676 45.6416 17.5062C45.6416 20.6447 46.4632 23.2873 48.0325 25.1526C49.6092 27.0402 51.852 28.0321 54.5168 28.0321C56.8781 28.0321 58.8693 27.0846 60.2239 25.3451V27.4547H64.2137V0H60.1869Z" fill="#550A9B"/>
<path d="M74.532 24.7307C72.1707 24.7307 71.0234 23.8276 71.0234 21.977C71.0234 19.5565 72.9035 19.0606 75.9976 18.5276C76.9673 18.35 78.6328 17.9873 79.8468 17.4025V19.9933C79.8468 21.829 78.4033 24.7307 74.532 24.7307ZM85.2652 24.3383H85.2282C84.6286 24.4716 84.2215 24.442 83.9846 24.2495C83.7107 24.0275 83.5923 23.5389 83.5923 22.658V13.62C83.5923 11.0366 82.667 9.17127 80.8313 8.06835C79.6025 7.34293 77.9666 6.98022 75.9754 6.98022C73.4661 6.98022 71.3713 7.65382 69.9204 8.9344C68.6251 10.0743 67.8626 11.7028 67.7812 13.5015L67.7664 13.8569H71.6896L71.7044 13.5312C71.808 11.2957 73.2958 10.1113 76.0124 10.1113C78.4256 10.1113 79.8098 11.2217 79.8098 13.1536C79.8098 14.4342 79.1288 15.167 75.4277 15.589C70.7125 16.1663 66.8115 17.0472 66.8115 22.0141C66.8115 25.6189 69.4541 27.8618 73.703 27.8618C76.3233 27.8618 78.4478 26.9069 80.0392 25.0193C80.55 26.8033 81.7047 27.6471 83.6441 27.6471C84.4879 27.6471 85.0653 27.4917 85.5464 27.3436L85.7833 27.2696V24.3383H85.2652Z" fill="#550A9B"/>
<path d="M98.3522 7.52809V11.2662H97.8489L97.7971 11.2514C97.3826 11.1256 97.0939 11.0885 96.5313 11.0885C95.1249 11.0885 93.8295 11.6141 92.882 12.5616C91.8679 13.5757 91.3276 14.9821 91.3276 16.618V27.4696H87.3008V7.45407H91.2906V10.2447C92.6378 8.27571 94.5549 7.20239 96.783 7.20239C97.3233 7.20239 97.7009 7.26901 98.1302 7.44667L98.3448 7.52809H98.3522Z" fill="#550A9B"/>
<path d="M104.511 0H100.336V4.56715H104.511V0Z" fill="#550A9B"/>
<path d="M104.43 7.45361H100.403V27.4691H104.43V7.45361Z" fill="#550A9B"/>
<path d="M120.064 19.9933C120.064 21.829 118.62 24.7307 114.749 24.7307C112.388 24.7307 111.24 23.8276 111.24 21.977C111.24 19.5565 113.12 19.0606 116.214 18.5276C117.184 18.35 118.85 17.9873 120.064 17.4025V19.9933ZM125.482 24.3383H125.445C124.845 24.4716 124.438 24.442 124.201 24.2495C123.928 24.0275 123.802 23.5389 123.802 22.658V13.62C123.802 11.0366 122.876 9.17127 121.041 8.06835C119.812 7.34293 118.176 6.98022 116.185 6.98022C113.675 6.98022 111.581 7.65382 110.13 8.9344C108.834 10.0743 108.072 11.7028 107.998 13.5015L107.983 13.8569H111.906L111.921 13.5312C112.025 11.2957 113.513 10.1113 116.229 10.1113C118.642 10.1113 120.027 11.2217 120.027 13.1536C120.027 14.4342 119.346 15.167 115.644 15.589C110.929 16.1663 107.028 17.0472 107.028 22.0141C107.028 25.6189 109.671 27.8618 113.92 27.8618C116.54 27.8618 118.672 26.9069 120.256 25.0193C120.759 26.8033 121.922 27.6471 123.861 27.6471C124.705 27.6471 125.282 27.4917 125.763 27.3436L126 27.2696V24.3383H125.482Z" fill="#550A9B"/>
<path d="M21.1403 16.8104H0.769531V12.7762H15.5073L12.5168 4.21924L10.5108 9.93373H6.35078L9.95564 0H15.0631L21.1403 16.8104Z" fill="#DA7427"/>
</svg>
