<svg width="180" height="106" viewBox="0 0 180 106" fill="none" xmlns="http://www.w3.org/2000/svg">
<g id="TBC LOGO - WHITE" clip-path="url(#clip0_2260_8245)">
<g id="Group">
<path id="Vector" d="M51.1829 26.4535H51.3081C51.4243 26.4505 51.5197 26.4326 51.5943 26.4029C51.6688 26.3732 51.7254 26.3256 51.7672 26.2602C51.8089 26.1948 51.8357 26.1145 51.8536 26.0134C51.8685 25.9123 51.8775 25.7903 51.8775 25.6476V22.9565C51.8745 22.8286 51.8626 22.7186 51.8447 22.6264C51.8268 22.5342 51.794 22.4569 51.7493 22.4004C51.7046 22.3409 51.642 22.2993 51.5674 22.2725C51.4929 22.2458 51.3945 22.2339 51.2783 22.2339H51.1888V22.1714H54.1699L54.4025 23.5215H54.3011L54.2683 23.3282C54.1312 22.6204 53.7347 22.2696 53.0818 22.2696H52.5989V24.3154H52.9179C53.1832 24.3154 53.371 24.2619 53.4843 24.1578C53.5946 24.0508 53.6512 23.8813 53.6512 23.6434V23.5542H53.7526V25.1807H53.6512V25.0618C53.6423 24.8418 53.5856 24.6812 53.4813 24.5801C53.374 24.479 53.2011 24.4225 52.9596 24.4165H52.6019V26.4267H53.3621C53.6602 26.4178 53.9016 26.3345 54.0835 26.168C54.2653 26.0015 54.3935 25.7636 54.471 25.4513L54.5277 25.1332H54.635L54.3965 26.5219H51.1918V26.4594L51.1829 26.4535Z" fill="white"/>
<path id="Vector_2" d="M55.422 25.0559H55.5234C55.4995 25.2402 55.5115 25.4216 55.5532 25.5971C55.5979 25.7725 55.6665 25.9271 55.7648 26.0639C55.8602 26.2007 55.9855 26.3107 56.1345 26.391C56.2836 26.4743 56.4565 26.5159 56.6473 26.5159C56.8053 26.5159 56.9513 26.4891 57.0795 26.4386C57.2077 26.388 57.321 26.3196 57.4134 26.2304C57.5088 26.1442 57.5803 26.0431 57.634 25.9271C57.6877 25.8112 57.7175 25.6892 57.7234 25.5614C57.7264 25.4454 57.7115 25.3324 57.6787 25.2224C57.6459 25.1124 57.5833 25.0083 57.4939 24.9101C57.4045 24.812 57.2852 24.7198 57.1362 24.6366C56.9871 24.5533 56.7993 24.47 56.5757 24.3957C56.3491 24.3243 56.1613 24.2322 56.0123 24.1192C55.8632 24.0062 55.7529 23.8813 55.6754 23.7445C55.5979 23.6077 55.5532 23.465 55.5383 23.3103C55.5264 23.1587 55.5383 23.0011 55.58 22.8435C55.6039 22.7453 55.6456 22.6502 55.7082 22.558C55.7708 22.4658 55.8483 22.3855 55.9437 22.3142C56.0391 22.2428 56.1464 22.1863 56.2657 22.1447C56.3849 22.1001 56.5161 22.0792 56.6592 22.0792C56.7695 22.0792 56.8798 22.0971 56.9931 22.1357C57.1063 22.1744 57.2107 22.2339 57.3061 22.3171C57.4045 22.3855 57.4999 22.4063 57.5923 22.3826C57.6847 22.3588 57.7443 22.2993 57.7711 22.2101L57.7771 22.1744H57.8516L57.637 23.5185H57.5356C57.5386 23.3371 57.5267 23.1646 57.4999 23.0011C57.473 22.8375 57.4224 22.6948 57.3508 22.5729C57.2793 22.4509 57.1898 22.3558 57.0765 22.2844C56.9633 22.2131 56.8261 22.1774 56.6622 22.1774C56.5489 22.1774 56.4475 22.1952 56.3581 22.2339C56.2687 22.2725 56.1941 22.3201 56.1315 22.3826C56.0689 22.445 56.0212 22.5193 55.9855 22.6026C55.9527 22.6888 55.9348 22.7751 55.9348 22.8673C55.9348 22.9594 55.9497 23.0368 55.9825 23.1141C56.0153 23.1914 56.0689 23.2657 56.1405 23.3341C56.215 23.4055 56.3104 23.4709 56.4296 23.5393C56.5489 23.6047 56.6979 23.6672 56.8768 23.7237C57.1183 23.804 57.324 23.8991 57.4879 24.0091C57.6519 24.1221 57.7831 24.247 57.8785 24.3898C57.9739 24.5325 58.0424 24.6841 58.0782 24.8447C58.114 25.0083 58.1259 25.1778 58.108 25.3592C58.0931 25.5435 58.0424 25.713 57.959 25.8677C57.8725 26.0223 57.7652 26.1561 57.631 26.2631C57.4999 26.3732 57.3448 26.4594 57.1749 26.5219C57.005 26.5843 56.8231 26.614 56.6383 26.614C56.4714 26.614 56.3134 26.5873 56.1673 26.5308C56.0212 26.4743 55.8901 26.394 55.7768 26.284C55.6516 26.2185 55.5383 26.2007 55.4369 26.2275C55.3356 26.2542 55.273 26.3286 55.2491 26.4475L55.2372 26.5159H55.1627L55.419 25.0469L55.422 25.0559Z" fill="white"/>
<path id="Vector_3" d="M62.0281 23.5601H61.9208L61.8642 23.2419C61.8314 23.1022 61.7777 22.9713 61.7121 22.8524C61.6436 22.7305 61.5631 22.6294 61.4677 22.5431C61.3723 22.4569 61.265 22.3915 61.1427 22.3409C61.0205 22.2904 60.8893 22.2666 60.7463 22.2666H60.5704V25.7338C60.5704 25.8617 60.5793 25.9717 60.5972 26.0609C60.6151 26.1501 60.6449 26.2245 60.6836 26.281C60.7224 26.3375 60.782 26.3821 60.8536 26.4089C60.9251 26.4356 61.0175 26.4505 61.1278 26.4535H61.253V26.5159H59.1692V26.4535H59.2497C59.3749 26.4535 59.4763 26.4386 59.5568 26.4118C59.6373 26.3821 59.6999 26.3375 59.7446 26.2721C59.7893 26.2066 59.8191 26.1234 59.834 26.0223C59.8489 25.9212 59.8579 25.7963 59.8579 25.6476V22.2636H59.6313C59.3421 22.2755 59.1066 22.3736 58.9248 22.561C58.74 22.7483 58.6147 22.9832 58.5462 23.2657L58.4955 23.5542H58.3882L58.6267 22.1655H61.7956L62.0341 23.5542L62.0281 23.5601Z" fill="white"/>
<path id="Vector_4" d="M62.058 26.5159V26.4535H62.1713C62.2875 26.4505 62.3859 26.4326 62.4604 26.4029C62.535 26.3732 62.5946 26.3256 62.6333 26.2602C62.6721 26.1948 62.7019 26.1145 62.7168 26.0134C62.7317 25.9123 62.7407 25.7903 62.7407 25.6476V22.9565C62.7377 22.8286 62.7258 22.7186 62.7108 22.6264C62.6959 22.5342 62.6632 22.4569 62.6184 22.4004C62.5737 22.3409 62.5111 22.2993 62.4336 22.2725C62.3561 22.2458 62.2577 22.2339 62.1415 22.2339H62.061V22.1714H63.7602C63.9778 22.1714 64.1954 22.2071 64.416 22.2755C64.6367 22.3469 64.8334 22.4628 65.0123 22.6294C65.1882 22.7959 65.3342 23.0159 65.4445 23.2955C65.5578 23.572 65.6115 23.9229 65.6115 24.3422C65.6115 24.7615 65.5548 25.1094 65.4445 25.3919C65.3313 25.6714 65.1882 25.8944 65.0123 26.0609C64.8364 26.2275 64.6367 26.3464 64.416 26.4148C64.1954 26.4862 63.9778 26.5189 63.7602 26.5189H62.061L62.058 26.5159ZM63.4531 22.2666V26.4208H63.7542C63.8854 26.4208 64.0166 26.388 64.1448 26.3256C64.273 26.2602 64.3833 26.1502 64.4816 25.9925C64.58 25.8349 64.6605 25.6208 64.7201 25.3562C64.7797 25.0915 64.8125 24.7525 64.8125 24.3452C64.8125 23.9378 64.7827 23.5988 64.7201 23.3341C64.6605 23.0665 64.58 22.8554 64.4816 22.7007C64.3833 22.5431 64.27 22.4331 64.1448 22.3677C64.0166 22.3023 63.8884 22.2725 63.7542 22.2725H63.4531V22.2666Z" fill="white"/>
</g>
<g id="Group_2">
<path id="Vector_5" d="M90.0925 48.7379C79.1309 48.7379 70.2144 38.0744 70.2144 24.9666C70.2144 11.8589 79.1309 1.19242 90.0925 1.19242C101.054 1.19242 109.971 11.8559 109.971 24.9637C109.971 38.0715 101.054 48.7349 90.0925 48.7349V48.7379ZM90.0925 1.48979C79.2948 1.48979 70.5125 12.0194 70.5125 24.9637C70.5125 37.9079 79.2948 48.4376 90.0925 48.4376C100.89 48.4376 109.672 37.9079 109.672 24.9637C109.672 12.0194 100.887 1.48979 90.0925 1.48979Z" fill="white"/>
<g id="Group_3">
<path id="Vector_6" d="M92.045 24.3749C90.6976 23.6166 89.1504 23.346 87.9311 22.3439C87.3557 21.8711 86.9473 21.318 86.679 20.6876V36.2992H88.0235C91.732 36.2992 95.7535 34.1016 95.7535 29.6323C95.7535 28.7313 95.4793 27.857 95.0112 27.0898C94.3047 25.9331 93.2166 25.0321 92.045 24.3719V24.3749Z" fill="white"/>
<path id="Vector_7" d="M90.0894 4.05901C80.4455 4.05901 72.629 13.42 72.629 24.9666C72.629 36.5133 80.4455 45.8743 90.0894 45.8743C99.7334 45.8743 107.55 36.5133 107.55 24.9666C107.55 13.42 99.7334 4.05901 90.0894 4.05901ZM89.4574 36.6292H80.2994V36.2992C80.8778 36.2784 80.9583 36.1981 81.3369 36.0583C81.7155 35.9185 82.0225 35.6955 82.2521 35.3833C82.4816 35.074 82.6426 34.6845 82.732 34.2147C82.8215 33.7448 82.8781 33.1709 82.896 32.4929V17.818C82.8751 17.14 82.8155 16.5542 82.7171 16.0666C82.6158 15.5789 82.4459 15.1774 82.2074 14.8682C81.9659 14.5589 81.6469 14.3329 81.2474 14.1932C80.9613 14.095 80.2994 13.9999 80.2994 13.9999V13.652H86.6969C86.6969 13.652 86.682 16.8962 86.682 17.7318C86.7715 17.5682 86.8758 17.4106 86.998 17.262C87.4392 16.7356 87.9639 16.4739 88.578 16.4739C89.0192 16.4739 89.3919 16.6256 89.6989 16.9319C90.006 17.2382 90.158 17.6099 90.158 18.05C90.158 18.6834 89.7734 19.0937 89.0013 19.2781C88.6078 19.3732 87.9103 19.3703 87.6121 19.6884C87.2932 20.0304 87.5585 20.7025 87.7701 21.0296C88.2143 21.7224 88.9507 22.1863 89.7287 22.451C90.4949 22.7126 91.2998 22.8048 92.1047 22.9C92.5697 22.9535 93.0348 23.01 93.4909 23.0962C94.4091 23.2746 95.3124 23.5452 96.159 23.9526C98.4038 25.0321 99.8884 27.0631 99.8884 29.5936C99.8884 33.6229 96.2902 36.6263 89.4604 36.6263L89.4574 36.6292Z" fill="white"/>
</g>
<path id="Vector_8" d="M90.0924 49.9303C78.5823 49.9303 69.2186 38.7316 69.2186 24.9666C69.2186 11.2017 78.5823 -3.8147e-06 90.0924 -3.8147e-06C101.603 -3.8147e-06 110.966 11.1987 110.966 24.9637C110.966 38.7286 101.603 49.9273 90.0924 49.9273V49.9303ZM90.0924 0.29736C78.7463 0.29736 69.5167 11.3623 69.5167 24.9637C69.5167 38.5651 78.7463 49.63 90.0924 49.63C101.439 49.63 110.668 38.5651 110.668 24.9637C110.668 11.3623 101.436 0.29736 90.0924 0.29736Z" fill="white"/>
</g>
<g id="Group_4">
<path id="Vector_9" d="M16.5601 63.6298C16.5601 63.6298 16.1726 62.5118 15.8864 62.0062C15.5555 61.4175 15.159 60.9179 14.6969 60.5046C14.2348 60.0912 13.7102 59.7641 13.1199 59.5262C12.5296 59.2883 11.8857 59.1664 11.1852 59.1664H10.3296V76.0418C10.3296 76.6663 10.3713 77.1956 10.4548 77.6268C10.5383 78.0579 10.6814 78.4177 10.8841 78.7032C11.0868 78.9887 11.364 79.1939 11.7128 79.3247C12.0616 79.4526 12.6966 79.5447 12.6966 79.5447V79.8481H4.46274V79.5447C4.41802 79.5447 4.99636 79.4764 5.38092 79.3366C5.76847 79.1998 6.07254 78.9738 6.29314 78.6616C6.51375 78.3493 6.6628 77.9449 6.73435 77.4483C6.80888 76.9517 6.84465 76.3451 6.84465 75.6285V59.1664H5.73866C4.33753 59.2229 3.1898 59.7047 2.29546 60.6146C1.49354 61.4323 0.566413 63.6358 0.566413 63.6358H0L0.849619 58.6996H16.2739L17.1206 63.6328H16.5601V63.6298Z" fill="white"/>
<path id="Vector_10" d="M17.2726 79.5447C17.845 79.5269 17.9433 79.4436 18.313 79.2979C18.6797 79.1522 18.9629 78.9203 19.1567 78.6081C19.3504 78.2958 19.4846 77.8944 19.5591 77.4097C19.6336 76.922 19.6694 76.3302 19.6694 75.6314V62.9459C19.6694 62.2293 19.6336 61.6226 19.5591 61.126C19.4846 60.6295 19.3415 60.2221 19.1298 59.8979C18.9182 59.5768 18.778 59.3478 18.3905 59.2081C18.003 59.0713 17.8867 58.9999 17.2785 58.9999V58.6966H25.3365V58.9999C24.8387 59.0177 24.4392 59.0921 24.1351 59.2199C23.831 59.3478 23.5896 59.547 23.4167 59.8117C23.2408 60.0793 23.1215 60.4183 23.056 60.8317C22.9904 61.245 22.9606 61.7475 22.9606 62.3333V65.536H29.7039V62.3333C29.686 61.7446 29.6442 61.245 29.5786 60.8317C29.5131 60.4183 29.3938 60.0793 29.2179 59.8117C29.042 59.5441 28.8065 59.3478 28.5114 59.2199C28.2163 59.0921 27.8287 59.0177 27.3488 58.9999V58.6966H35.7257V58.9999C35.1533 59.0177 34.6942 59.101 34.3455 59.2467C33.9937 59.3954 33.7194 59.6273 33.5167 59.9485C33.314 60.2696 33.1769 60.6741 33.1023 61.1617C33.0278 61.6494 32.992 62.2412 32.992 62.94V75.6255C32.992 76.3243 33.0278 76.9161 33.1023 77.4037C33.1769 77.8914 33.314 78.2899 33.5167 78.6021C33.7194 78.9143 33.9967 79.1433 34.3455 79.292C34.6942 79.4407 34.8254 79.521 35.3978 79.5388V79.8421H27.3517V79.5388C27.8675 79.521 28.2819 79.4377 28.5949 79.292C28.9079 79.1463 29.1464 78.9143 29.3133 78.6021C29.4803 78.2899 29.5846 77.8884 29.6323 77.4037C29.677 76.9161 29.7009 76.3243 29.7009 75.6255V66.0058H22.9576V75.6255C22.9576 76.3243 22.9814 76.9161 23.0261 77.4037C23.0709 77.8914 23.1782 78.2899 23.3451 78.6021C23.5121 78.9143 23.7506 79.1433 24.0636 79.292C24.3766 79.4407 24.7999 79.521 25.3335 79.5388V79.8421H17.2726V79.5388V79.5447Z" fill="white"/>
<path id="Vector_11" d="M38.3402 79.5447C38.9126 79.5269 39.002 79.4436 39.3627 79.2979C39.7235 79.1522 40.0037 78.9203 40.2064 78.6081C40.4091 78.2958 40.5463 77.8944 40.6208 77.4097C40.6953 76.922 40.7311 76.3302 40.7311 75.6314V62.5326C40.7132 61.9081 40.6566 61.3699 40.5641 60.9209C40.4717 60.4718 40.3167 60.1031 40.0961 59.8177C39.8755 59.5322 39.5804 59.327 39.2107 59.1962C38.8411 59.0683 38.373 59.0029 37.8006 59.0029H37.3594V58.6996H50.2319L51.0845 63.6328H50.5449C50.5449 63.6328 49.5313 59.1664 46.5651 59.1664H44.216V67.6889H45.7632C47.054 67.6889 47.9692 67.4302 48.5148 66.9157C49.0574 66.4013 49.3316 65.5657 49.3316 64.406H49.8295V71.2989H49.3316C49.2958 70.2343 49.0186 69.4522 48.5029 68.9556C47.9871 68.459 47.1375 68.1944 45.96 68.1557H44.219V79.3782H45.1491C46.6039 79.3425 47.7755 78.9233 48.6609 78.1234C49.5463 77.3234 50.1723 76.1608 50.5419 74.6353H51.0785L50.1812 79.8481H38.3462V79.5447H38.3402Z" fill="white"/>
<path id="Vector_12" d="M73.094 79.3098C73.094 79.3098 74.0838 79.0749 74.4057 78.7538C74.7277 78.4326 74.9423 78.0877 75.1301 77.5375C75.303 77.032 75.5117 76.3184 75.7144 75.6552L75.7532 75.5155L75.7979 75.3489L79.8343 61.1469C79.9089 60.3737 79.7688 59.8236 79.42 59.4935C79.0712 59.1635 78.4243 58.9969 77.4852 58.9969H77.1811V58.6936H82.407L87.6508 77.0023C87.8178 77.4989 88.0056 77.9122 88.2173 78.2423C88.4289 78.5724 88.6764 78.8341 88.9625 79.0273C89.2487 79.2206 89.5945 79.3544 90 79.4288C90.4054 79.5031 90.8943 79.5388 91.4637 79.5388H91.6843V79.8421H82.2491V79.5388H82.8304C83.3998 79.5388 83.8678 79.4972 84.2255 79.4139C84.5862 79.3306 84.8516 79.1939 85.0275 79.0006C85.2033 78.8073 85.2958 78.5426 85.3047 78.2007C85.3136 77.8617 85.254 77.4335 85.1258 76.919L82.5949 68.1528H78.8446L76.6267 75.2835L76.6088 75.3489C76.4061 76.0478 76.2659 76.6573 76.2212 77.1837C76.1765 77.707 76.2689 78.1442 76.415 78.4921C76.5611 78.84 76.8234 79.1047 77.202 79.2771C77.3779 79.3574 77.6343 79.4645 77.6343 79.4645L77.6522 79.8421H72.936L73.0881 79.3039L73.094 79.3098ZM82.5024 67.6889L80.8151 61.7862L78.9549 67.6889" fill="white"/>
<path id="Vector_13" d="M101.236 58.9999C100.702 59.0177 100.583 59.0951 100.234 59.2348C99.8825 59.3716 99.6082 59.5798 99.4055 59.8563C99.2028 60.1329 99.0597 60.4897 98.9762 60.9328C98.8927 61.3729 98.851 61.9081 98.851 62.5326V79.3812H99.3488C100.988 79.3455 103.302 78.9352 104.175 78.1531C105.052 77.371 105.663 76.1816 106.015 74.5818L106.125 73.9484L106.262 73.0949H106.76L105.627 79.851H92.9752V79.5477C93.5088 79.5299 93.5804 79.4555 93.9322 79.3277C94.2809 79.1998 94.5642 78.9917 94.7758 78.7062C94.9875 78.4207 95.1365 78.0639 95.217 77.6297C95.3005 77.1986 95.3512 76.6692 95.3691 76.0448V62.5326C95.3512 61.9081 95.2945 61.3699 95.2021 60.9209C95.1097 60.4718 94.9547 60.1031 94.7311 59.8177C94.5105 59.5322 94.2154 59.327 93.8457 59.1962C93.5834 59.104 92.9722 59.0207 92.9722 59.0207V58.7025H101.221L101.236 59.0058V58.9999Z" fill="white"/>
<path id="Vector_14" d="M122.56 77.5019C121.731 78.385 120.744 79.1017 119.603 79.6518C118.461 80.2019 117.224 80.4517 115.897 80.3952C114.773 80.3387 113.727 80.077 112.761 79.6102C111.795 79.1403 110.951 78.4534 110.233 77.5405C109.514 76.6306 108.951 75.5006 108.546 74.1476C108.14 72.7976 107.937 71.2305 107.937 69.4463C107.937 67.5699 108.185 65.9314 108.683 64.5249C109.181 63.1184 109.842 61.9468 110.674 61.0101C111.503 60.0734 112.457 59.3746 113.536 58.9137C114.615 58.4557 115.742 58.2238 116.923 58.2238C117.382 58.2238 117.876 58.2773 118.401 58.3903C118.926 58.5003 119.433 58.6579 119.922 58.8601C120.41 59.0623 120.852 59.3062 121.248 59.5917C121.645 59.8771 121.943 60.1953 122.145 60.5432C122.515 61.1677 122.655 61.691 122.575 62.1163C122.491 62.5385 122.303 62.8299 122.008 62.9846C121.713 63.1422 121.382 63.1541 121.013 63.0262C120.643 62.8983 120.366 62.5861 120.184 62.0895C119.814 61.135 119.379 60.3291 118.872 59.6779C118.365 59.0267 117.716 58.6996 116.923 58.6996C116.186 58.6996 115.495 58.9018 114.848 59.3062C114.201 59.7106 113.634 60.344 113.148 61.2093C112.66 62.0746 112.278 63.1719 112.001 64.5041C111.723 65.8363 111.586 67.4242 111.586 69.2619C111.586 70.8974 111.753 72.3277 112.084 73.5499C112.415 74.7721 112.853 75.789 113.396 76.5979C113.938 77.4067 114.567 78.0222 115.277 78.4445C115.986 78.8668 116.729 79.1076 117.504 79.1611C118.425 79.2176 119.301 79.0511 120.13 78.6646C120.959 78.278 121.668 77.7814 122.259 77.1748L122.563 77.5048L122.56 77.5019Z" fill="white"/>
<path id="Vector_15" d="M131.87 58.2297C132.994 58.2297 134.088 58.4498 135.146 58.8899C136.207 59.33 137.137 60.008 137.939 60.9179C138.741 61.8278 139.385 62.9757 139.874 64.3643C140.363 65.753 140.608 67.3826 140.608 69.2589C140.608 71.1353 140.363 72.7649 139.874 74.1535C139.385 75.5422 138.741 76.6901 137.939 77.6C137.137 78.5099 136.207 79.1909 135.146 79.6399C134.088 80.0889 132.994 80.3149 131.87 80.3149C130.746 80.3149 129.631 80.0889 128.582 79.6399C127.532 79.1909 126.605 78.5099 125.803 77.6C125.001 76.6901 124.36 75.5422 123.883 74.1535C123.403 72.7649 123.165 71.1353 123.165 69.2589C123.165 67.3826 123.403 65.753 123.883 64.3643C124.363 62.9757 125.004 61.8278 125.803 60.9179C126.605 60.008 127.532 59.3329 128.582 58.8899C129.631 58.4498 130.728 58.2297 131.87 58.2297ZM132.064 79.8481C132.69 79.8481 133.298 79.6637 133.888 79.2979C134.478 78.9292 134.994 78.3285 135.435 77.4929C135.876 76.6573 136.222 75.566 136.473 74.2249C136.723 72.8838 136.836 71.2275 136.819 69.2619C136.783 67.3142 136.61 65.6698 136.306 64.3257C136.002 62.9846 135.611 61.8962 135.131 61.0577C134.651 60.2221 134.109 59.6184 133.501 59.2527C132.892 58.8839 132.275 58.7025 131.649 58.7025C131.023 58.7025 130.391 58.8869 129.81 59.2527C129.229 59.6214 128.719 60.2221 128.275 61.0577C127.833 61.8932 127.491 62.9846 127.252 64.3257C127.014 65.6668 126.912 67.3142 126.948 69.2619C126.966 71.2305 127.127 72.8838 127.431 74.2249C127.735 75.566 128.123 76.6573 128.594 77.4929C129.065 78.3285 129.598 78.9322 130.197 79.2979C130.797 79.6667 131.417 79.8481 132.064 79.8481Z" fill="white"/>
<path id="Vector_16" d="M140.396 79.8481V79.5447H140.81C141.159 79.5447 141.442 79.4555 141.672 79.3306C142.161 79.063 142.462 78.5545 142.542 78.0044C142.635 77.377 142.778 76.2262 142.778 75.2419V62.143C142.76 61.5186 142.709 61.0041 142.626 60.5997C142.542 60.1953 142.39 59.8741 142.17 59.6333C141.949 59.3954 141.654 59.2289 141.284 59.1367C141.016 59.0713 140.381 59.0088 140.381 59.0088V58.6936H145.21L154.884 75.4322V62.7199C154.848 61.4502 154.595 60.5224 154.124 59.9336C153.763 59.4846 152.493 59.0683 152.493 59.0683V58.6936H157.904V59.0742C157.904 59.0742 156.625 59.5114 156.264 59.9901C155.766 60.6532 155.519 61.7 155.519 63.1333V79.8421H153.501L143.383 62.6069V75.456C143.401 76.8179 143.663 77.8379 144.17 78.5159C144.581 79.069 145.771 79.5001 145.771 79.5001V79.8391H140.393L140.396 79.8481Z" fill="white"/>
<path id="Vector_17" d="M169.08 58.6966V58.9999H168.529C168.031 59.0177 167.649 59.0861 167.381 59.2081C167.113 59.327 166.949 59.5173 166.883 59.773C166.817 60.0318 166.841 60.3559 166.952 60.7514C167.062 61.1469 167.247 61.6197 167.503 62.1728L170.931 69.3987L174.193 62.5891L174.22 62.5058C174.682 61.3491 174.804 60.4748 174.592 59.886C174.381 59.2973 173.722 59.0029 172.616 59.0029H172.312V58.6996H179.997V59.0029H179.472C178.423 59.0029 177.564 59.2616 176.903 59.776C176.241 60.2905 175.621 61.0725 175.051 62.1192L171.209 70.1986V76.4314C171.227 77.0558 171.283 77.5703 171.376 77.9747C171.468 78.3791 171.623 78.6973 171.844 78.9262C172.064 79.1552 172.359 79.3158 172.729 79.408C172.968 79.4674 173.579 79.5299 173.579 79.5299V79.851H165.33V79.5358C165.33 79.5358 166.036 79.4674 166.317 79.3961C166.704 79.295 166.999 79.1106 167.202 78.8459C167.405 78.5783 167.542 78.2215 167.616 77.7695C167.691 77.3205 167.727 76.7347 167.727 76.018V70.5584L164.105 62.9489C163.774 62.2501 163.455 61.6583 163.151 61.1707C162.847 60.683 162.519 60.2786 162.17 59.9574C161.821 59.6363 161.428 59.4013 160.995 59.2556C160.563 59.1099 160.059 59.0267 159.487 59.0088H158.768V58.7055H169.08V58.6966Z" fill="white"/>
<g id="Group_5">
<path id="Vector_18" d="M74.3819 104.479C74.9543 104.461 75.0437 104.378 75.4044 104.232C75.7652 104.086 76.0454 103.854 76.2481 103.542C76.4508 103.23 76.5879 102.828 76.6625 102.344C76.737 101.856 76.7728 101.264 76.7728 100.565V87.4665C76.7549 86.8421 76.6982 86.3038 76.6058 85.8548C76.5134 85.4058 76.3584 85.0371 76.1378 84.7516C75.9172 84.4661 75.6221 84.2609 75.2524 84.1301C74.8827 84.0022 74.4147 83.9368 73.8423 83.9368H73.4011V83.6335H86.2736L87.1262 88.5668H86.5866C86.5866 88.5668 85.573 84.1004 82.6068 84.1004H80.2577V92.6228H81.8049C83.0957 92.6228 84.0109 92.3641 84.5565 91.8497C85.099 91.3352 85.3733 90.4996 85.3733 89.3399H85.8711V96.2328H85.3733C85.3375 95.1682 85.0603 94.3862 84.5446 93.8896C84.0288 93.393 83.1792 93.1283 82.0017 93.0897H80.2607V104.312H81.1908C82.6456 104.276 83.8172 103.857 84.7025 103.057C85.5879 102.257 86.214 101.095 86.5836 99.5692H87.1202L86.2229 104.782H74.3879V104.479H74.3819Z" fill="white"/>
<path id="Vector_19" d="M120.688 88.5638C120.688 88.5638 120.3 87.4457 120.014 86.9402C119.683 86.3514 119.287 85.8518 118.824 85.4385C118.362 85.0252 117.838 84.6981 117.247 84.4602C116.657 84.2223 116.013 84.1004 115.313 84.1004H114.457V100.976C114.457 101.6 114.499 102.13 114.582 102.561C114.666 102.992 114.809 103.352 115.012 103.637C115.214 103.923 115.492 104.128 115.84 104.259C116.189 104.386 116.824 104.479 116.824 104.479V104.782H108.59V104.479C108.546 104.479 109.124 104.41 109.508 104.271C109.896 104.134 110.2 103.908 110.421 103.596C110.641 103.283 110.79 102.879 110.862 102.382C110.936 101.886 110.972 101.279 110.972 100.562V84.1004H109.866C108.465 84.1569 107.317 84.6386 106.423 85.5485C105.621 86.3663 104.694 88.5697 104.694 88.5697H104.122L104.971 83.6335H120.396L121.242 88.5668H120.682L120.688 88.5638Z" fill="white"/>
<path id="Vector_20" d="M68.6642 83.9338C68.1306 83.9517 68.0113 84.029 67.6625 84.1687C67.3107 84.3055 67.0365 84.5137 66.8338 84.7902C66.6311 85.0668 66.488 85.4236 66.4045 85.8667C66.321 86.3068 66.2793 86.8421 66.2793 87.4665V104.315H66.7771C68.4167 104.279 70.7301 103.869 71.6036 103.087C72.48 102.305 73.0911 101.116 73.4429 99.5157L73.5532 98.8823L73.6903 98.0289H74.1882L73.0554 104.785H60.4035V104.482C60.9371 104.464 61.0087 104.389 61.3604 104.262C61.7092 104.134 61.9924 103.926 62.2041 103.64C62.4158 103.355 62.5648 102.998 62.6453 102.564C62.7288 102.132 62.7794 101.603 62.7973 100.979V87.4665C62.7794 86.8421 62.7228 86.3038 62.6304 85.8548C62.538 85.4058 62.383 85.0371 62.1594 84.7516C61.9388 84.4661 61.6436 84.2609 61.274 84.1301C61.0116 84.0379 60.4005 83.9546 60.4005 83.9546V83.6365H68.6493L68.6642 83.9398V83.9338Z" fill="white"/>
<path id="Vector_21" d="M54.465 83.9338C53.9314 83.9517 53.8122 84.029 53.4634 84.1687C53.1116 84.3055 52.8373 84.5137 52.6346 84.7902C52.4319 85.0668 52.2888 85.4236 52.2053 85.8667C52.1219 86.3068 52.0801 86.8421 52.0801 87.4665V104.315H52.578C54.2176 104.279 56.5309 103.869 57.4044 103.087C58.2809 102.305 58.892 101.116 59.2438 99.5157L59.3541 98.8823L59.4912 98.0289H59.989L58.8562 104.785H46.2043V104.482C46.738 104.464 46.8095 104.389 47.1613 104.262C47.5101 104.134 47.7933 103.926 48.0049 103.64C48.2166 103.355 48.3656 102.998 48.4461 102.564C48.5296 102.132 48.5803 101.603 48.5982 100.979V87.4665C48.5803 86.8421 48.5237 86.3038 48.4312 85.8548C48.3388 85.4058 48.1838 85.0371 47.9602 84.7516C47.7396 84.4661 47.4445 84.2609 47.0748 84.1301C46.8125 84.0379 46.2014 83.9546 46.2014 83.9546V83.6365H54.4501L54.465 83.9398V83.9338Z" fill="white"/>
<path id="Vector_22" d="M147.929 104.782V104.479H148.344C148.692 104.479 148.976 104.389 149.205 104.265C149.694 103.997 149.995 103.488 150.076 102.938C150.168 102.311 150.311 101.16 150.311 100.176V87.077C150.293 86.4525 150.242 85.9381 150.159 85.5337C150.076 85.1292 149.924 84.8081 149.703 84.5672C149.482 84.3293 149.187 84.1628 148.818 84.0706C148.549 84.0052 147.914 83.9428 147.914 83.9428V83.6276H152.744L162.417 100.366V87.6538C162.382 86.3841 162.128 85.4563 161.657 84.8676C161.296 84.4185 160.027 84.0022 160.027 84.0022V83.6276H165.437V84.0082C165.437 84.0082 164.158 84.4453 163.798 84.9241C163.3 85.5872 163.052 86.6339 163.052 88.0672V104.776H161.034L150.916 87.5409V100.39C150.934 101.752 151.196 102.772 151.703 103.45C152.115 104.003 153.304 104.434 153.304 104.434V104.773H147.926L147.929 104.782Z" fill="white"/>
<path id="Vector_23" d="M29.1792 102.391C28.3505 103.274 27.3637 103.991 26.2219 104.541C25.0802 105.091 23.846 105.341 22.5164 105.285C21.3925 105.228 20.3461 104.966 19.3773 104.5C18.4114 104.03 17.5677 103.343 16.8493 102.43C16.1308 101.52 15.5674 100.39 15.162 99.0369C14.7565 97.6869 14.5538 96.1198 14.5538 94.3356C14.5538 92.4592 14.8013 90.8208 15.2991 89.4142C15.797 88.0077 16.4588 86.8361 17.2905 85.8994C18.1193 84.9627 19.0732 84.2639 20.1524 83.803C21.2315 83.3451 22.3584 83.1131 23.5389 83.1131C24.001 83.1131 24.4929 83.1666 25.0176 83.2796C25.5422 83.3897 26.049 83.5473 26.5379 83.7495C27.0268 83.9517 27.468 84.1955 27.8645 84.481C28.261 84.7665 28.5591 85.0846 28.7619 85.4325C29.1315 86.057 29.2716 86.5804 29.1911 87.0056C29.1077 87.4279 28.9198 87.7193 28.6247 87.8739C28.3296 88.0315 27.9987 88.0434 27.629 87.9155C27.2594 87.7877 26.9821 87.4754 26.8003 86.9788C26.4306 86.0243 25.9954 85.2185 25.4886 84.5672C24.9818 83.916 24.3319 83.5889 23.5389 83.5889C22.8026 83.5889 22.111 83.7911 21.4641 84.1955C20.8201 84.5999 20.2508 85.2333 19.7648 86.0986C19.2759 86.964 18.8943 88.0612 18.6171 89.3934C18.3399 90.7256 18.2027 92.3135 18.2027 94.1512C18.2027 95.7867 18.3697 97.2171 18.7006 98.4392C19.0315 99.6614 19.4697 100.678 20.0123 101.487C20.5548 102.296 21.1809 102.912 21.8934 103.334C22.6029 103.756 23.3452 103.997 24.1173 104.05C25.0384 104.107 25.9149 103.94 26.7436 103.554C27.5724 103.167 28.2819 102.671 28.8722 102.064L29.1762 102.394L29.1792 102.391Z" fill="white"/>
<path id="Vector_24" d="M37.9616 83.1637C39.0855 83.1637 40.1766 83.3837 41.2378 83.8238C42.2961 84.2639 43.2292 84.9419 44.0311 85.8518C44.8331 86.7618 45.477 87.9096 45.9659 89.2983C46.4548 90.687 46.6992 92.3165 46.6992 94.1929C46.6992 96.0692 46.4548 97.6988 45.9659 99.0875C45.477 100.476 44.8331 101.624 44.0311 102.534C43.2292 103.444 42.2991 104.125 41.2378 104.574C40.1766 105.023 39.0855 105.249 37.9616 105.249C36.8377 105.249 35.7228 105.023 34.6734 104.574C33.6211 104.125 32.6969 103.444 31.895 102.534C31.0931 101.624 30.4521 100.476 29.9752 99.0875C29.4952 97.6988 29.2567 96.0692 29.2567 94.1929C29.2567 92.3165 29.4952 90.687 29.9752 89.2983C30.4551 87.9096 31.0931 86.7618 31.895 85.8518C32.6969 84.9419 33.6211 84.2669 34.6734 83.8238C35.7228 83.3837 36.8198 83.1637 37.9616 83.1637ZM38.1554 104.782C38.7814 104.782 39.3895 104.598 39.9798 104.232C40.5701 103.863 41.0858 103.262 41.527 102.427C41.9682 101.591 42.314 100.5 42.5644 99.1588C42.8148 97.8177 42.9281 96.1614 42.9102 94.1958C42.8715 92.2481 42.7016 90.6037 42.3975 89.2596C42.0934 87.9185 41.7029 86.8302 41.2229 85.9916C40.743 85.156 40.2004 84.5523 39.5923 84.1866C38.9841 83.8179 38.367 83.6365 37.741 83.6365C37.1149 83.6365 36.4829 83.8208 35.9046 84.1866C35.3233 84.5553 34.8135 85.156 34.3693 85.9916C33.9281 86.8272 33.5853 87.9185 33.3468 89.2596C33.1083 90.6007 33.004 92.2481 33.0427 94.1958C33.0606 96.1644 33.2216 97.8177 33.5257 99.1588C33.8298 100.5 34.2173 101.591 34.6883 102.427C35.1593 103.262 35.693 103.866 36.2922 104.232C36.8914 104.601 37.5114 104.782 38.1583 104.782H38.1554Z" fill="white"/>
<path id="Vector_25" d="M102.646 102.391C101.817 103.274 100.83 103.991 99.6886 104.541C98.5469 105.091 97.3097 105.341 95.9831 105.285C94.8592 105.228 93.8128 104.966 92.847 104.5C91.8781 104.03 91.0374 103.343 90.319 102.43C89.6005 101.52 89.0371 100.39 88.6316 99.0369C88.2262 97.6869 88.0235 96.1198 88.0235 94.3356C88.0235 92.4592 88.2739 90.8208 88.7688 89.4142C89.2666 88.0077 89.9314 86.8361 90.7602 85.8994C91.5889 84.9627 92.5429 84.2639 93.622 83.803C94.7012 83.3451 95.8281 83.1131 97.0086 83.1131C97.4677 83.1131 97.9626 83.1666 98.4872 83.2796C99.0119 83.3897 99.5187 83.5473 100.008 83.7495C100.497 83.9517 100.938 84.1955 101.334 84.481C101.731 84.7665 102.029 85.0846 102.232 85.4325C102.601 86.057 102.744 86.5804 102.661 87.0056C102.577 87.4279 102.39 87.7193 102.094 87.8739C101.799 88.0315 101.468 88.0434 101.099 87.9155C100.729 87.7877 100.452 87.4754 100.27 86.9788C99.9003 86.0243 99.4621 85.2185 98.9583 84.5672C98.4515 83.916 97.8016 83.5889 97.0086 83.5889C96.2723 83.5889 95.5806 83.7911 94.9337 84.1955C94.2868 84.5999 93.7234 85.2333 93.2345 86.0986C92.7456 86.964 92.364 88.0612 92.0868 89.3934C91.8095 90.7256 91.6724 92.3135 91.6724 94.1512C91.6724 95.7867 91.8393 97.2171 92.1702 98.4392C92.5011 99.6614 92.9394 100.678 93.4819 101.487C94.0245 102.296 94.6535 102.912 95.363 103.334C96.0725 103.756 96.8148 103.997 97.5899 104.05C98.5111 104.107 99.3875 103.94 100.216 103.554C101.045 103.167 101.755 102.671 102.345 102.064L102.649 102.394L102.646 102.391Z" fill="white"/>
<path id="Vector_26" d="M122.312 104.455C122.312 104.455 123.037 104.342 123.317 104.232C123.687 104.086 123.97 103.854 124.173 103.542C124.375 103.23 124.512 102.828 124.587 102.344C124.661 101.856 124.697 101.264 124.697 100.565V87.4665C124.679 86.8421 124.623 86.3038 124.53 85.8548C124.438 85.4058 124.283 85.0371 124.059 84.7516C123.839 84.4661 123.538 84.2609 123.162 84.1301C122.915 84.0468 122.309 83.9576 122.309 83.9576V83.6335H130.57V83.9546C130.57 83.9546 129.84 84.0617 129.559 84.1687C129.208 84.3055 128.933 84.5137 128.731 84.7902C128.528 85.0668 128.385 85.4236 128.301 85.8667C128.218 86.3068 128.176 86.8421 128.176 87.4665V100.979C128.176 101.621 128.221 102.165 128.313 102.605C128.406 103.045 128.558 103.405 128.769 103.682C128.981 103.958 129.273 104.161 129.64 104.288C129.896 104.378 130.567 104.464 130.567 104.464V104.785H122.306V104.458L122.312 104.455Z" fill="white"/>
<path id="Vector_27" d="M139.394 83.1637C140.518 83.1637 141.609 83.3837 142.67 83.8238C143.729 84.2639 144.662 84.9419 145.464 85.8518C146.266 86.7618 146.91 87.9096 147.398 89.2983C147.887 90.687 148.132 92.3165 148.132 94.1929C148.132 96.0692 147.887 97.6988 147.398 99.0875C146.91 100.476 146.266 101.624 145.464 102.534C144.662 103.444 143.732 104.125 142.67 104.574C141.609 105.023 140.518 105.249 139.394 105.249C138.27 105.249 137.155 105.023 136.106 104.574C135.054 104.125 134.13 103.444 133.328 102.534C132.526 101.624 131.885 100.476 131.408 99.0875C130.928 97.6988 130.689 96.0692 130.689 94.1929C130.689 92.3165 130.928 90.687 131.408 89.2983C131.888 87.9096 132.526 86.7618 133.328 85.8518C134.13 84.9419 135.054 84.2669 136.106 83.8238C137.155 83.3837 138.252 83.1637 139.394 83.1637ZM139.588 104.782C140.214 104.782 140.822 104.598 141.412 104.232C142.003 103.863 142.518 103.262 142.96 102.427C143.401 101.591 143.747 100.5 143.997 99.1588C144.247 97.8177 144.361 96.1614 144.343 94.1958C144.304 92.2481 144.134 90.6037 143.83 89.2596C143.526 87.9185 143.135 86.8302 142.656 85.9916C142.176 85.156 141.633 84.5523 141.025 84.1866C140.417 83.8179 139.8 83.6365 139.174 83.6365C138.548 83.6365 137.916 83.8208 137.337 84.1866C136.756 84.5553 136.246 85.156 135.802 85.9916C135.361 86.8272 135.018 87.9185 134.779 89.2596C134.541 90.6007 134.437 92.2481 134.475 94.1958C134.493 96.1644 134.654 97.8177 134.958 99.1588C135.262 100.5 135.65 101.591 136.121 102.427C136.592 103.262 137.126 103.866 137.725 104.232C138.324 104.601 138.944 104.782 139.591 104.782H139.588Z" fill="white"/>
</g>
<path id="Vector_28" d="M73.7052 71.849C73.6575 71.278 73.6068 70.7012 73.4131 70.1629C72.9898 68.9883 71.9553 68.126 70.8225 67.6591C70.1487 67.3826 69.3528 67.219 68.4316 67.1625C72.2534 66.77 72.2743 63.4009 72.2743 63.4009C72.2743 62.6842 72.1252 62.0211 71.8301 61.4145C71.535 60.8079 71.1832 60.4302 70.6227 59.9693C70.0593 59.5114 69.3886 59.3002 68.5777 59.0415C67.7668 58.7828 66.7622 58.6936 65.7516 58.6936H58.1378V59.0177C58.1378 59.0177 58.7609 59.104 59.0083 59.1902C59.378 59.3181 59.6701 59.5262 59.8937 59.8117C60.1143 60.0972 60.2723 60.4629 60.3647 60.9149C60.4571 61.3669 60.5138 61.9022 60.5317 62.5266V75.6255C60.5317 76.3243 60.4929 76.9161 60.4214 77.4037C60.3468 77.8914 60.2097 78.2899 60.007 78.6021C59.8043 78.9143 59.524 79.1433 59.1633 79.292C58.8831 79.408 58.1438 79.518 58.1438 79.518V79.8451H66.1153C67.7847 79.8451 69.4989 79.5745 70.9626 78.73C72 78.1323 72.8854 77.2342 73.3505 76.131C73.9139 74.7959 73.8304 73.2882 73.7142 71.846L73.7052 71.849ZM64.0076 59.1664C63.9808 59.1664 65.0838 59.1664 65.1613 59.1664C65.8053 59.1664 66.5744 59.1397 67.2094 59.2794C67.9069 59.4311 68.4018 59.8295 68.7297 60.4659C69.4422 61.8427 69.3886 63.6923 68.6641 64.962C68.2557 65.6787 67.2273 66.3061 66.5356 66.7611C65.7904 67.2488 64.8781 67.4896 64.0047 67.6353V59.1694L64.0076 59.1664ZM70.6585 75.0278C70.5273 76.4849 70.0921 77.9211 68.7625 78.7151C68.0828 79.1225 67.2869 79.295 66.4969 79.3544C66.4522 79.3574 66.3061 79.3604 66.1093 79.3663C65.4028 79.3812 64.0076 79.3901 64.0076 79.3753V69.7585C64.0076 69.3006 64.0017 68.8456 64.0076 68.3877C64.0076 68.349 63.9898 68.2628 64.0076 68.2271C64.0852 68.0754 64.6188 68.0933 64.8096 68.0665C65.5906 67.9565 66.3687 67.8019 67.1587 67.8048C68.217 67.8108 69.3617 68.1736 69.9252 69.0686C70.1875 69.4849 70.2978 69.9756 70.3902 70.4603C70.6734 71.962 70.7927 73.5023 70.6555 75.0248L70.6585 75.0278Z" fill="white"/>
</g>
<g id="Group_6">
<g id="Group_7">
<path id="Vector_29" d="M117.659 24.479C117.674 23.9378 117.715 23.4501 117.933 22.9921C118.094 22.6531 118.327 22.3766 118.696 22.2517C119.167 22.0941 119.662 22.2785 119.975 22.7245C120.202 23.0427 120.306 23.4085 120.363 23.7891C120.44 24.3273 120.431 24.8655 120.294 25.3948C120.175 25.8587 119.96 26.2661 119.477 26.4535C118.89 26.6824 118.276 26.4535 117.966 25.8974C117.766 25.5405 117.659 25.0261 117.659 24.479ZM118.252 24.4284V24.4522C118.252 24.6752 118.222 24.8834 118.258 25.1005C118.312 25.4305 118.365 25.7784 118.505 26.0788C118.714 26.5278 119.31 26.5218 119.558 26.0907C119.638 25.9509 119.698 25.7903 119.728 25.6327C119.883 24.8477 119.883 24.0597 119.737 23.2776C119.689 23.0249 119.594 22.7661 119.456 22.5491C119.251 22.2249 118.839 22.2309 118.61 22.5372C118.511 22.668 118.422 22.8316 118.395 22.9892C118.309 23.465 118.267 23.9526 118.255 24.4284H118.252Z" fill="white"/>
<path id="Vector_30" d="M119.027 26.614C118.574 26.614 118.148 26.3702 117.903 25.9331C117.701 25.5733 117.584 25.044 117.587 24.479C117.602 23.8723 117.656 23.4085 117.868 22.9624C118.061 22.555 118.324 22.3023 118.675 22.1833C119.179 22.0138 119.701 22.2041 120.041 22.6829C120.246 22.9743 120.375 23.3222 120.44 23.7772C120.524 24.36 120.5 24.9101 120.372 25.4127C120.276 25.7814 120.082 26.2988 119.51 26.5219C119.352 26.5843 119.188 26.614 119.03 26.614H119.027ZM119.334 22.3201C119.406 22.3677 119.468 22.4301 119.519 22.5104C119.656 22.7245 119.758 22.9921 119.808 23.2657C119.957 24.0597 119.954 24.8626 119.799 25.6506C119.766 25.8201 119.704 25.9866 119.62 26.1293C119.537 26.2721 119.415 26.3791 119.275 26.4386C119.331 26.4267 119.391 26.4059 119.447 26.3851C119.841 26.2334 120.077 25.9212 120.217 25.377C120.345 24.8864 120.366 24.3719 120.282 23.801C120.22 23.3698 120.1 23.0427 119.91 22.7691C119.752 22.5461 119.549 22.3944 119.328 22.3201H119.334ZM117.733 24.4819C117.733 25.0202 117.841 25.5227 118.031 25.8617C118.204 26.165 118.467 26.3643 118.765 26.4356C118.625 26.3732 118.508 26.2602 118.44 26.1115C118.303 25.8171 118.249 25.4841 118.195 25.1629L118.186 25.1153C118.16 24.9577 118.166 24.8061 118.175 24.6574C118.175 24.592 118.181 24.5236 118.181 24.4552V24.4284C118.195 23.908 118.243 23.4204 118.324 22.9773C118.359 22.784 118.467 22.6056 118.553 22.4926C118.607 22.4212 118.672 22.3617 118.744 22.3171C118.738 22.3171 118.729 22.3231 118.723 22.3231C118.41 22.4272 118.181 22.6502 118.005 23.0249C117.805 23.4471 117.754 23.8932 117.739 24.479L117.733 24.4819ZM118.327 24.4314V24.4552C118.327 24.5265 118.327 24.5949 118.321 24.6633C118.315 24.809 118.309 24.9488 118.333 25.0915L118.341 25.1391C118.392 25.4513 118.446 25.7725 118.574 26.052C118.655 26.2275 118.81 26.3345 118.997 26.3434C119.203 26.3494 119.388 26.2423 119.495 26.058C119.57 25.9271 119.626 25.7784 119.656 25.6238C119.808 24.8536 119.811 24.0716 119.662 23.2955C119.614 23.0427 119.519 22.7929 119.391 22.5937C119.31 22.4658 119.188 22.3915 119.051 22.3855C118.908 22.3766 118.765 22.4539 118.666 22.5848C118.559 22.7275 118.488 22.8762 118.464 23.007C118.386 23.4412 118.339 23.9229 118.324 24.4344L118.327 24.4314Z" fill="white"/>
</g>
<g id="Group_8">
<path id="Vector_31" d="M124.196 26.507C124.769 25.9717 125.192 25.3532 125.317 24.5444C125.258 24.5741 125.207 24.5979 125.159 24.6217C124.372 25.038 123.529 24.5979 123.454 23.7147C123.433 23.4828 123.454 23.233 123.517 23.007C123.648 22.5491 123.979 22.2696 124.453 22.2131C124.974 22.1506 125.425 22.2993 125.711 22.7751C125.928 23.1349 125.973 23.5333 125.943 23.9437C125.869 24.9547 125.276 25.6684 124.563 26.3107C124.462 26.4029 124.345 26.4832 124.235 26.5665L124.193 26.504L124.196 26.507ZM125.267 22.7424C125.18 22.445 124.888 22.3052 124.626 22.3171C124.34 22.329 124.176 22.5074 124.089 22.7572C123.925 23.239 123.925 23.7237 124.089 24.2024C124.199 24.5206 124.423 24.6752 124.754 24.6306C124.942 24.6039 125.138 24.5117 125.29 24.3957C125.365 24.3392 125.398 24.1608 125.413 24.0389C125.422 23.9586 125.368 23.0814 125.27 22.7424H125.267Z" fill="white"/>
<path id="Vector_32" d="M124.22 26.6765L124.098 26.4981L124.146 26.4535C124.739 25.9004 125.085 25.3324 125.219 24.6782C125.21 24.6812 125.204 24.6871 125.195 24.6901C124.793 24.9012 124.354 24.9131 123.994 24.7169C123.642 24.5265 123.418 24.1638 123.38 23.7237C123.359 23.4709 123.38 23.2122 123.445 22.9892C123.585 22.5045 123.94 22.2041 124.444 22.1447C125.046 22.0733 125.493 22.2755 125.776 22.7424C125.976 23.0724 126.057 23.4679 126.021 23.9556C125.94 25.038 125.267 25.7844 124.617 26.3702C124.545 26.4356 124.465 26.4951 124.39 26.5516C124.354 26.5784 124.322 26.6051 124.286 26.6319L124.223 26.6795L124.22 26.6765ZM125.413 24.4135L125.392 24.5563C125.302 25.1242 125.073 25.6298 124.676 26.1085C125.252 25.5643 125.803 24.8834 125.872 23.9407C125.905 23.4798 125.836 23.123 125.648 22.8167C125.487 22.5491 125.261 22.3796 124.975 22.3112C125.135 22.3855 125.279 22.5193 125.338 22.7215C125.443 23.0695 125.496 23.9497 125.484 24.0478C125.46 24.2559 125.413 24.3868 125.344 24.4463L125.41 24.4135H125.413ZM124.366 22.3052C123.97 22.3826 123.702 22.6294 123.588 23.0308C123.529 23.236 123.508 23.4768 123.529 23.7118C123.561 24.1013 123.758 24.4195 124.065 24.589C124.214 24.6693 124.381 24.7109 124.551 24.7109H124.554C124.304 24.6782 124.119 24.5146 124.021 24.2322C123.851 23.7356 123.851 23.233 124.021 22.7364C124.092 22.5283 124.208 22.3855 124.366 22.3082V22.3052ZM124.656 22.3915C124.656 22.3915 124.638 22.3915 124.629 22.3915C124.399 22.4034 124.244 22.5283 124.161 22.781C124.003 23.2449 124.003 23.7147 124.161 24.1786C124.262 24.47 124.459 24.5949 124.745 24.5563C124.912 24.5325 125.094 24.4552 125.246 24.3362C125.255 24.3273 125.308 24.2768 125.338 24.0299C125.347 23.9467 125.293 23.0873 125.195 22.7632C125.118 22.5045 124.867 22.3915 124.656 22.3915Z" fill="white"/>
</g>
<g id="Group_9">
<path id="Vector_33" d="M117.095 25.6357C117.042 25.9301 116.985 26.2245 116.928 26.5278H114.439C114.427 26.2364 114.499 25.9717 114.627 25.719C114.886 25.2164 115.271 24.809 115.661 24.4106C115.989 24.0745 116.29 23.7237 116.353 23.239C116.368 23.1289 116.377 23.0159 116.365 22.9059C116.329 22.5104 116.025 22.2666 115.632 22.329C114.958 22.439 114.705 22.7156 114.687 23.3044C114.687 23.352 114.687 23.3995 114.678 23.4441C114.675 23.4679 114.66 23.4917 114.651 23.5155C114.633 23.5155 114.618 23.5155 114.6 23.5155C114.588 23.2598 114.573 23.004 114.564 22.7453C114.564 22.7275 114.582 22.7007 114.597 22.6888C115.05 22.3201 115.551 22.106 116.147 22.2487C116.538 22.3439 116.794 22.6948 116.833 23.0932C116.893 23.685 116.63 24.137 116.237 24.5355C115.939 24.8358 115.617 25.1123 115.319 25.4127C115.095 25.6387 114.901 25.8914 114.83 26.2126C114.818 26.2691 114.812 26.3256 114.8 26.4029C115.128 26.4029 115.438 26.4029 115.748 26.4029C115.9 26.4029 116.055 26.4029 116.207 26.4029C116.604 26.4029 116.818 26.2512 116.946 25.8766C116.976 25.7933 116.997 25.7041 117.024 25.6208C117.045 25.6268 117.066 25.6298 117.086 25.6357H117.095Z" fill="white"/>
<path id="Vector_34" d="M116.991 26.6021H114.368V26.5308C114.353 26.2423 114.418 25.9658 114.561 25.6863C114.818 25.1837 115.187 24.7882 115.608 24.36C115.912 24.0478 116.216 23.7028 116.279 23.23C116.296 23.1051 116.299 23.004 116.29 22.9148C116.276 22.7424 116.201 22.5967 116.082 22.5045C115.963 22.4123 115.811 22.3766 115.644 22.4063C115.018 22.5074 114.779 22.7513 114.761 23.3103C114.761 23.3609 114.758 23.4114 114.752 23.459C114.749 23.4858 114.737 23.5096 114.728 23.5304L114.702 23.5958L114.532 23.5869L114.52 23.3728C114.511 23.1646 114.499 22.9594 114.49 22.7513C114.49 22.7037 114.523 22.6561 114.553 22.6323C115.092 22.1952 115.62 22.0465 116.168 22.1774C116.574 22.2755 116.866 22.6323 116.911 23.0873C116.964 23.6315 116.767 24.1102 116.293 24.589C116.144 24.7406 115.986 24.8864 115.831 25.0321C115.676 25.1748 115.524 25.3205 115.375 25.4692C115.196 25.6506 114.979 25.9004 114.907 26.2334C114.901 26.2661 114.895 26.2988 114.889 26.3345H116.213C116.577 26.3345 116.764 26.2007 116.881 25.8587C116.902 25.8022 116.917 25.7457 116.934 25.6863L116.979 25.5376L117.182 25.5852L116.991 26.6081V26.6021ZM116.457 26.4535H116.869L116.931 26.1085C116.821 26.2988 116.669 26.4089 116.457 26.4535ZM114.514 26.4535H114.722L114.74 26.3226C114.746 26.275 114.752 26.2364 114.761 26.1977C114.842 25.826 115.074 25.5554 115.268 25.3621C115.417 25.2105 115.572 25.0677 115.727 24.922C115.882 24.7793 116.037 24.6336 116.183 24.4849C116.624 24.0389 116.809 23.6017 116.759 23.1022C116.72 22.7126 116.472 22.4063 116.13 22.3231C116.094 22.3142 116.058 22.3052 116.019 22.2993C116.073 22.3201 116.127 22.3498 116.171 22.3855C116.323 22.5045 116.416 22.6859 116.437 22.9C116.446 23.0011 116.443 23.1111 116.425 23.2479C116.356 23.7683 116.034 24.134 115.712 24.4641C115.301 24.8834 114.94 25.27 114.693 25.7547C114.573 25.9896 114.514 26.2185 114.511 26.4535H114.514ZM114.874 22.5758C114.8 22.6264 114.725 22.6799 114.648 22.7424C114.648 22.8256 114.648 22.9089 114.654 22.9921C114.693 22.8226 114.767 22.6829 114.874 22.5758Z" fill="white"/>
</g>
<g id="Group_10">
<path id="Vector_35" d="M122.918 26.5248H121.048C121.048 26.5248 121.039 26.4951 121.033 26.4802C121.066 26.4654 121.099 26.4416 121.132 26.4356C121.242 26.4148 121.355 26.4118 121.46 26.3791C121.615 26.3315 121.71 26.2245 121.71 26.058C121.71 25.0261 121.71 23.9943 121.71 22.9624C121.71 22.9505 121.701 22.9416 121.695 22.9208C121.564 22.9356 121.433 22.9535 121.299 22.9624C121.26 22.9624 121.221 22.9446 121.183 22.9356C121.218 22.9059 121.248 22.8673 121.287 22.8524C121.379 22.8197 121.481 22.8048 121.576 22.7721C121.8 22.6978 121.952 22.5431 122.056 22.335C122.089 22.2696 122.169 22.2279 122.226 22.1774C122.244 22.1893 122.262 22.2041 122.28 22.216C122.28 22.2785 122.28 22.3409 122.28 22.4063C122.28 23.578 122.28 24.7525 122.28 25.9242C122.28 26.3018 122.387 26.4118 122.765 26.4356C122.819 26.4386 122.873 26.4564 122.926 26.4683C122.923 26.4862 122.918 26.507 122.915 26.5248H122.918Z" fill="white"/>
<path id="Vector_36" d="M122.98 26.5992H120.995L120.944 26.4416L121.004 26.4148C121.004 26.4148 121.022 26.4059 121.03 26.3999C121.057 26.3851 121.084 26.3702 121.12 26.3642C121.162 26.3553 121.206 26.3524 121.251 26.3464C121.32 26.3375 121.382 26.3315 121.442 26.3107C121.573 26.2721 121.642 26.1858 121.642 26.0609C121.642 25.0886 121.642 24.1192 121.642 23.1468V23.004L121.606 23.007C121.507 23.0189 121.409 23.0308 121.311 23.0368C121.269 23.0397 121.233 23.0278 121.203 23.0189C121.191 23.0159 121.183 23.013 121.171 23.01L121.028 22.9743L121.141 22.8791C121.141 22.8791 121.159 22.8613 121.168 22.8554C121.194 22.8286 121.224 22.7989 121.269 22.784C121.32 22.7662 121.373 22.7513 121.427 22.7394C121.472 22.7275 121.516 22.7186 121.558 22.7037C121.749 22.6383 121.892 22.5074 121.996 22.3023C122.026 22.2428 122.08 22.2012 122.131 22.1655C122.148 22.1506 122.166 22.1387 122.184 22.1238L122.229 22.0852L122.363 22.1803V25.9242C122.363 26.2602 122.441 26.3405 122.78 26.3613C122.822 26.3613 122.864 26.3732 122.903 26.3851C122.918 26.388 122.935 26.394 122.95 26.397L123.022 26.4118L122.983 26.6021L122.98 26.5992ZM121.493 26.4505H122.461C122.277 26.3732 122.208 26.2156 122.208 25.9212V22.2874C122.172 22.3142 122.139 22.3409 122.125 22.3677C122.002 22.6115 121.832 22.7661 121.6 22.8435C121.57 22.8524 121.54 22.8613 121.513 22.8702C121.537 22.8702 121.561 22.8643 121.585 22.8613L121.746 22.8435L121.767 22.897C121.779 22.9238 121.788 22.9416 121.788 22.9654V23.1468C121.788 24.1192 121.788 25.0886 121.788 26.0609C121.788 26.2483 121.68 26.391 121.493 26.4505Z" fill="white"/>
</g>
</g>
</g>
<defs>
<clipPath id="clip0_2260_8245">
<rect width="180" height="105.296" fill="white"/>
</clipPath>
</defs>
</svg>
