<svg width="228" height="31" viewBox="0 0 228 31" fill="none" xmlns="http://www.w3.org/2000/svg">
<path d="M100.156 29.3652C98.7047 28.5429 97.5623 27.4213 96.7291 26.0026C95.8959 24.584 95.4814 23.0168 95.4814 21.2989C95.4814 19.581 95.898 18.0138 96.7291 16.5951C97.5623 15.1765 98.7047 14.0549 100.156 13.2325C101.606 12.4102 103.212 11.999 104.973 11.999C106.734 11.999 108.297 12.4102 109.736 13.2325C110.456 13.6437 111.1 14.1302 111.667 14.69C112.234 15.2497 112.728 15.8847 113.144 16.5951C113.975 18.0138 114.392 19.581 114.392 21.2989C114.392 23.0168 113.975 24.584 113.144 26.0026C112.311 27.4213 111.175 28.5429 109.736 29.3652C108.295 30.1876 106.708 30.5987 104.973 30.5987C103.238 30.5987 101.606 30.1876 100.156 29.3652ZM107.971 26.6463C108.875 26.1103 109.59 25.3719 110.112 24.429C110.636 23.4861 110.898 22.4441 110.898 21.2989C110.898 20.1536 110.636 19.1117 110.112 18.1688C109.59 17.2259 108.875 16.4875 107.971 15.9515C107.067 15.4154 106.066 15.1463 104.973 15.1463C103.88 15.1463 102.836 15.4154 101.922 15.9515C101.007 16.4875 100.285 17.228 99.7634 18.1688C99.2395 19.1117 98.9775 20.1536 98.9775 21.2989C98.9775 22.4441 99.2395 23.4861 99.7634 24.429C100.285 25.3719 101.007 26.1103 101.922 26.6463C102.836 27.1823 103.854 27.4514 104.973 27.4514C106.092 27.4514 107.067 27.1823 107.971 26.6463Z" fill="white"/>
<path d="M188.429 12.0683V30.2418L185.219 30.2375V27.3679C184.482 28.3215 183.41 29.258 182.362 29.794C181.315 30.33 180.198 30.5991 179.008 30.5991C177.438 30.5991 176.01 30.2009 174.726 29.4001C173.442 28.6014 172.431 27.4992 171.694 26.0913C170.955 24.6855 170.586 23.0861 170.586 21.2971C170.586 19.5082 170.953 17.9109 171.694 16.503C172.431 15.0972 173.442 13.9929 174.726 13.1942C176.01 12.3955 177.438 11.9951 179.008 11.9951C180.245 11.9951 181.398 12.2814 182.47 12.8541C183.541 13.4267 184.456 14.2254 185.216 15.2501V12.0662H188.429V12.0683ZM182.433 26.6639C183.29 26.1408 183.956 25.4067 184.433 24.4638C184.907 23.5231 185.146 22.4661 185.146 21.2971C185.146 20.1282 184.907 19.0733 184.433 18.1304C183.956 17.1875 183.29 16.4556 182.433 15.9303C181.577 15.4072 180.625 15.1424 179.579 15.1424C178.534 15.1424 177.591 15.4051 176.76 15.9303C175.927 16.4556 175.274 17.1875 174.797 18.1304C174.32 19.0733 174.084 20.1282 174.084 21.2971C174.084 22.4661 174.32 23.5209 174.797 24.4638C175.274 25.4067 175.927 26.1408 176.76 26.6639C177.591 27.1892 178.531 27.4518 179.579 27.4518C180.627 27.4518 181.577 27.1892 182.433 26.6639Z" fill="white"/>
<path d="M206.334 11.9151C205.619 11.7967 204.887 11.984 204.273 12.3715L194.852 18.2937V12.0808H191.491L191.47 18.5757V30.2522H194.852V22.3172L204.299 16.3088C204.537 16.156 204.85 16.3282 204.85 16.6124V30.2522H208.239V14.7546C208.239 12.7008 207.245 12.0658 206.332 11.9172L206.334 11.9151Z" fill="white"/>
<path d="M131.46 11.9473C130.745 11.8289 130.012 12.0162 129.398 12.4037L119.995 17.5552L119.999 12.0808H116.617L116.595 30.2521H119.984L119.99 21.5701L129.424 16.3411C129.662 16.1882 129.976 16.3604 129.976 16.6446V30.2521H133.365V14.7868C133.365 12.7331 132.37 12.098 131.458 11.9495L131.46 11.9473Z" fill="white"/>
<path d="M32.9288 0C32.8472 0 32.7355 0.0107637 32.7355 0.0107637L0 5.96526V18.6729L32.8579 2.57253C32.9073 2.55746 32.9546 2.55531 32.9889 2.56392C33.2122 2.6242 33.3669 2.82871 33.3669 3.06336C33.3669 3.09565 33.3561 3.13224 33.3347 3.17315L9.81808 30.2762H22.5438L35.6539 4.29042C35.8235 3.90293 35.9094 3.4896 35.9094 3.06336C35.9094 1.3756 34.5737 0.00215275 32.9309 0.00215275L32.9288 0Z" fill="white"/>
<path d="M86.4212 4.95508V26.5213L86.4018 30.2735H83.2043L83.2108 27.4125C82.4742 28.3662 81.4005 29.2854 80.3547 29.8236C79.3067 30.3596 78.19 30.6287 77.0004 30.6287C75.4306 30.6287 74.0025 30.2305 72.7184 29.4296C71.4342 28.631 70.4228 27.5288 69.6862 26.1209C68.9475 24.7151 68.5781 23.1156 68.5781 21.3267C68.5781 19.5378 68.9453 17.9404 69.6862 16.5325C70.4228 15.1268 71.4342 14.0224 72.7184 13.2238C74.0025 12.4251 75.4306 12.0247 77.0004 12.0247C78.2373 12.0247 79.3905 12.311 80.462 12.8836C81.5336 13.4563 82.4484 14.2549 83.2086 15.2796V4.95508H86.4212ZM80.4255 26.6935C81.2824 26.1704 81.9481 25.4363 82.4248 24.4934C82.8994 23.5526 83.1377 22.4956 83.1377 21.3267C83.1377 20.1578 82.8994 19.1029 82.4248 18.16C81.9481 17.2171 81.2824 16.4852 80.4255 15.9599C79.5687 15.4368 78.6174 15.172 77.5716 15.172C76.5258 15.172 75.5831 15.4346 74.752 15.9599C73.9188 16.4852 73.266 17.2171 72.7892 18.16C72.3125 19.1029 72.0763 20.1578 72.0763 21.3267C72.0763 22.4956 72.3125 23.5505 72.7892 24.4934C73.266 25.4363 73.9188 26.1704 74.752 26.6935C75.5831 27.2188 76.5236 27.4814 77.5716 27.4814C78.6195 27.4814 79.5687 27.2188 80.4255 26.6935Z" fill="white"/>
<path d="M65.9714 4.95312L65.9757 8.78286H62.587L62.5806 4.95312H65.9714Z" fill="white"/>
<path d="M65.9751 11.8975H62.5864V30.2733H65.9751V11.8975Z" fill="white"/>
<path d="M92.8771 4.96191L92.8814 8.79165H89.4928L89.4863 4.96191H92.8771Z" fill="white"/>
<path d="M92.8816 11.9043H89.4929V30.2801H92.8816V11.9043Z" fill="white"/>
<path d="M213.151 21.1894L222.975 12.1221H227.491L217.525 21.1894L217.589 21.2411L227.53 30.2934H223.014L213.189 21.226" fill="white"/>
<path d="M214.686 22.9032V30.2506H211.291V4.97949H214.686V22.9011V22.9032Z" fill="white"/>
<path d="M43.2407 30.2737H59.5226V26.7626H46.61C46.3524 26.7626 46.1891 26.5301 46.2879 26.261L54.8541 4.95312H50.7997L41.424 27.3589C40.8506 28.7517 41.7461 30.2737 43.2407 30.2737Z" fill="white"/>
<path d="M164.764 16.2468C165.864 15.0477 166.542 13.4525 166.542 11.6959C166.542 7.97811 163.536 4.96211 159.825 4.96211L152.184 4.96642V4.95996H148.274V30.2784H152.294L159.829 30.2806H160.62C164.768 30.2806 168.391 26.8814 168.398 22.7223C168.402 19.9775 166.944 17.5794 164.764 16.249V16.2468ZM151.98 8.31394L159.825 8.30963C161.702 8.30963 163.229 9.84023 163.229 11.7217C163.229 13.6032 161.702 15.1338 159.825 15.1338H151.98V8.31394ZM160.699 26.9309H153.134H152.945H151.987L151.978 18.533L160.845 18.49C163.349 18.49 165.348 20.6922 165.02 23.2669C164.747 25.3938 162.838 26.933 160.699 26.933V26.9309Z" fill="white"/>
</svg>
