<svg width="51" height="51" viewBox="0 0 51 51" fill="none" xmlns="http://www.w3.org/2000/svg">
<rect width="51" height="51" fill="#1E1E1E"/>
<g filter="url(#filter0_d_0_1)">
<rect x="25.2132" y="0.707107" width="29" height="29" transform="rotate(45 25.2132 0.707107)" stroke="#2671C7" shape-rendering="crispEdges"/>
</g>
<g filter="url(#filter1_d_0_1)">
<rect x="12.5" y="8.5" width="26" height="26" stroke="#2671C7" shape-rendering="crispEdges"/>
</g>
<path d="M19.9302 16.3023H20.3953V16.7674H19.9302V16.3023ZM19.4651 16.3023H19.9302V16.7674H19.4651V16.3023ZM19.4651 16.7674H19.9302V17.2326H19.4651V16.7674ZM20.3953 15.8372H20.8605V16.3023H20.3953V15.8372ZM20.3953 15.3721H20.8605V15.8372H20.3953V15.3721ZM20.8605 15.3721H21.3256V15.8372H20.8605V15.3721ZM20.8605 15.8372H21.3256V16.3023H20.8605V15.8372ZM21.3256 15.3721H21.7907V15.8372H21.3256V15.3721ZM21.7907 15.8372H22.2558V16.3023H21.7907V15.8372ZM21.3256 15.8372H21.7907V16.3023H21.3256V15.8372ZM21.3256 16.3023H21.7907V16.7674H21.3256V16.3023ZM21.7907 16.3023H22.2558V16.7674H21.7907V16.3023ZM21.7907 16.7674H22.2558V17.2326H21.7907V16.7674ZM22.2558 16.3023H22.7209V16.7674H22.2558V16.3023ZM22.7209 16.3023H23.186V16.7674H22.7209V16.3023ZM22.7209 16.7674H23.186V17.2326H22.7209V16.7674ZM22.2558 16.7674H22.7209V17.2326H22.2558V16.7674ZM23.6512 17.2326H24.1163V17.6977H23.6512V17.2326ZM23.186 17.2326H23.6512V17.6977H23.186V17.2326ZM23.186 17.6977H23.6512V18.1628H23.186V17.6977ZM23.6512 17.6977H24.1163V18.1628H23.6512V17.6977ZM23.6512 18.1628H24.1163V18.6279H23.6512V18.1628ZM23.6512 18.6279H24.1163V19.093H23.6512V18.6279ZM23.186 18.6279H23.6512V19.093H23.186V18.6279ZM23.186 18.1628H23.6512V18.6279H23.186V18.1628ZM23.186 19.093H23.6512V19.5581H23.186V19.093ZM23.186 19.5581H23.6512V20.0233H23.186V19.5581ZM23.6512 19.5581H24.1163V20.0233H23.6512V19.5581ZM23.6512 19.093H24.1163V19.5581H23.6512V19.093ZM23.186 20.0233H23.6512V20.4884H23.186V20.0233ZM23.6512 20.0233H24.1163V20.4884H23.6512V20.0233ZM23.6512 20.4884H24.1163V20.9535H23.6512V20.4884ZM23.186 20.4884H23.6512V20.9535H23.186V20.4884ZM23.186 20.9535H23.6512V21.4186H23.186V20.9535ZM23.186 21.4186H23.6512V21.8837H23.186V21.4186ZM23.6512 21.4186H24.1163V21.8837H23.6512V21.4186ZM23.6512 20.9535H24.1163V21.4186H23.6512V20.9535ZM25.9767 17.2326H26.4419V17.6977H25.9767V17.2326ZM26.4419 17.2326H26.907V17.6977H26.4419V17.2326ZM26.4419 17.6977H26.907V18.1628H26.4419V17.6977ZM26.4419 18.1628H26.907V18.6279H26.4419V18.1628ZM26.4419 18.6279H26.907V19.093H26.4419V18.6279ZM26.4419 19.093H26.907V19.5581H26.4419V19.093ZM26.4419 19.5581H26.907V20.0233H26.4419V19.5581ZM26.4419 20.0233H26.907V20.4884H26.4419V20.0233ZM26.4419 20.4884H26.907V20.9535H26.4419V20.4884ZM25.9767 20.4884H26.4419V20.9535H25.9767V20.4884ZM25.9767 20.9535H26.4419V21.4186H25.9767V20.9535ZM25.9767 21.4186H26.4419V21.8837H25.9767V21.4186ZM26.4419 21.4186H26.907V21.8837H26.4419V21.4186ZM26.4419 20.9535H26.907V21.4186H26.4419V20.9535ZM25.9767 20.0233H26.4419V20.4884H25.9767V20.0233ZM25.9767 17.6977H26.4419V18.1628H25.9767V17.6977ZM23.186 23.7442H23.6512V24.2093H23.186V23.7442ZM23.186 23.2791H23.6512V23.7442H23.186V23.2791ZM23.186 22.814H23.6512V23.2791H23.186V22.814ZM23.186 22.3488H23.6512V22.814H23.186V22.3488ZM23.6512 22.3488H24.1163V22.814H23.6512V22.3488ZM23.6512 21.8837H24.1163V22.3488H23.6512V21.8837ZM23.6512 22.814H24.1163V23.2791H23.6512V22.814ZM23.6512 23.2791H24.1163V23.7442H23.6512V23.2791ZM23.6512 23.7442H24.1163V24.2093H23.6512V23.7442ZM23.186 21.8837H23.6512V22.3488H23.186V21.8837ZM25.9767 24.2093H26.4419V24.6744H25.9767V24.2093ZM26.4419 24.2093H26.907V24.6744H26.4419V24.2093ZM26.4419 23.7442H26.907V24.2093H26.4419V23.7442ZM26.4419 23.2791H26.907V23.7442H26.4419V23.2791ZM26.4419 22.814H26.907V23.2791H26.4419V22.814ZM26.4419 22.3488H26.907V22.814H26.4419V22.3488ZM26.4419 21.8837H26.907V22.3488H26.4419V21.8837ZM25.9767 21.8837H26.4419V22.3488H25.9767V21.8837ZM25.9767 22.3488H26.4419V22.814H25.9767V22.3488ZM25.9767 22.814H26.4419V23.2791H25.9767V22.814ZM25.9767 23.2791H26.4419V23.7442H25.9767V23.2791ZM25.9767 23.7442H26.4419V24.2093H25.9767V23.7442ZM19.9302 15.8372H20.3953V16.3023H19.9302V15.8372ZM21.7907 15.3721H22.2558V15.8372H21.7907V15.3721ZM22.2558 15.8372H22.7209V16.3023H22.2558V15.8372ZM23.6512 16.7674H24.1163V17.2326H23.6512V16.7674ZM22.7209 17.2326H23.186V17.6977H22.7209V17.2326ZM23.186 16.7674H23.6512V17.2326H23.186V16.7674ZM22.2558 17.2326H22.7209V17.6977H22.2558V17.2326ZM22.7209 17.6977H23.186V18.1628H22.7209V17.6977ZM22.2558 15.3721H22.7209V15.8372H22.2558V15.3721ZM22.7209 15.8372H23.186V16.3023H22.7209V15.8372ZM23.186 16.3023H23.6512V16.7674H23.186V16.3023ZM20.8605 16.3023H21.3256V16.7674H20.8605V16.3023ZM21.3256 16.7674H21.7907V17.2326H21.3256V16.7674ZM21.7907 17.2326H22.2558V17.6977H21.7907V17.2326ZM22.2558 17.6977H22.7209V18.1628H22.2558V17.6977ZM22.7209 18.1628H23.186V18.6279H22.7209V18.1628ZM25.9767 24.6744H26.4419V25.1395H25.9767V24.6744ZM25.9767 25.1395H26.4419V25.6047H25.9767V25.1395ZM26.4419 25.1395H26.907V25.6047H26.4419V25.1395ZM26.4419 25.6047H26.907V26.0698H26.4419V25.6047ZM26.4419 24.6744H26.907V25.1395H26.4419V24.6744ZM25.9767 25.6047H26.4419V26.0698H25.9767V25.6047ZM25.5116 25.6047H25.9767V26.0698H25.5116V25.6047ZM25.0465 25.6047H25.5116V26.0698H25.0465V25.6047ZM24.1163 17.2326H24.5814V17.6977H24.1163V17.2326ZM24.5814 17.2326H25.0465V17.6977H24.5814V17.2326ZM24.5814 17.6977H25.0465V18.1628H24.5814V17.6977ZM24.5814 18.1628H25.0465V18.6279H24.5814V18.1628ZM24.5814 18.6279H25.0465V19.093H24.5814V18.6279ZM24.5814 19.093H25.0465V19.5581H24.5814V19.093ZM24.5814 20.0233H25.0465V20.4884H24.5814V20.0233ZM24.5814 20.9535H25.0465V21.4186H24.5814V20.9535ZM24.5814 21.4186H25.0465V21.8837H24.5814V21.4186ZM24.5814 21.8837H25.0465V22.3488H24.5814V21.8837ZM24.5814 22.3488H25.0465V22.814H24.5814V22.3488ZM24.5814 22.814H25.0465V23.2791H24.5814V22.814ZM24.5814 23.7442H25.0465V24.2093H24.5814V23.7442ZM24.5814 23.2791H25.0465V23.7442H24.5814V23.2791ZM24.5814 20.4884H25.0465V20.9535H24.5814V20.4884ZM24.5814 19.5581H25.0465V20.0233H24.5814V19.5581ZM24.1163 17.6977H24.5814V18.1628H24.1163V17.6977ZM24.1163 18.1628H24.5814V18.6279H24.1163V18.1628ZM24.1163 18.6279H24.5814V19.093H24.1163V18.6279ZM24.1163 20.0233H24.5814V20.4884H24.1163V20.0233ZM24.1163 20.4884H24.5814V20.9535H24.1163V20.4884ZM24.1163 20.9535H24.5814V21.4186H24.1163V20.9535ZM24.1163 21.4186H24.5814V21.8837H24.1163V21.4186ZM24.1163 21.8837H24.5814V22.3488H24.1163V21.8837ZM24.1163 22.3488H24.5814V22.814H24.1163V22.3488ZM24.1163 22.814H24.5814V23.2791H24.1163V22.814ZM24.1163 23.2791H24.5814V23.7442H24.1163V23.2791ZM24.1163 23.7442H24.5814V24.2093H24.1163V23.7442ZM24.1163 19.5581H24.5814V20.0233H24.1163V19.5581ZM24.1163 19.093H24.5814V19.5581H24.1163V19.093ZM25.9767 19.5581H26.4419V20.0233H25.9767V19.5581ZM25.9767 19.093H26.4419V19.5581H25.9767V19.093ZM25.9767 18.6279H26.4419V19.093H25.9767V18.6279ZM25.9767 18.1628H26.4419V18.6279H25.9767V18.1628ZM23.6512 25.6047H24.1163V26.0698H23.6512V25.6047ZM24.1163 25.6047H24.5814V26.0698H24.1163V25.6047ZM24.5814 25.6047H25.0465V26.0698H24.5814V25.6047ZM23.186 25.1395H23.6512V25.6047H23.186V25.1395ZM23.6512 25.1395H24.1163V25.6047H23.6512V25.1395ZM24.1163 25.1395H24.5814V25.6047H24.1163V25.1395ZM23.6512 26.0698H24.1163V26.5349H23.6512V26.0698ZM23.6512 26.5349H24.1163V27H23.6512V26.5349ZM23.186 26.0698H23.6512V26.5349H23.186V26.0698ZM23.186 25.6047H23.6512V26.0698H23.186V25.6047ZM24.5814 25.1395H25.0465V25.6047H24.5814V25.1395ZM25.0465 25.1395H25.5116V25.6047H25.0465V25.1395ZM25.5116 25.1395H25.9767V25.6047H25.5116V25.1395ZM22.7209 25.1395H23.186V25.6047H22.7209V25.1395ZM22.2558 25.1395H22.7209V25.6047H22.2558V25.1395ZM22.2558 25.6047H22.7209V26.0698H22.2558V25.6047ZM22.7209 25.6047H23.186V26.0698H22.7209V25.6047ZM21.7907 26.0698H22.2558V26.5349H21.7907V26.0698ZM21.3256 26.5349H21.7907V27H21.3256V26.5349ZM24.1163 26.0698H24.5814V26.5349H24.1163V26.0698ZM24.5814 26.0698H25.0465V26.5349H24.5814V26.0698ZM24.5814 26.5349H25.0465V27H24.5814V26.5349ZM24.1163 26.5349H24.5814V27H24.1163V26.5349ZM25.0465 26.0698H25.5116V26.5349H25.0465V26.0698ZM25.5116 26.0698H25.9767V26.5349H25.5116V26.0698ZM25.0465 26.5349H25.5116V27H25.0465V26.5349ZM27.3721 26.0698H27.8372V26.5349H27.3721V26.0698ZM26.907 26.0698H27.3721V26.5349H26.907V26.0698ZM27.3721 26.5349H27.8372V27H27.3721V26.5349ZM27.8372 26.5349H28.3023V27H27.8372V26.5349ZM28.3023 26.0698H28.7674V26.5349H28.3023V26.0698ZM27.8372 26.0698H28.3023V26.5349H27.8372V26.0698ZM26.907 25.1395H27.3721V25.6047H26.907V25.1395ZM27.3721 25.1395H27.8372V25.6047H27.3721V25.1395ZM27.8372 25.1395H28.3023V25.6047H27.8372V25.1395ZM28.3023 25.1395H28.7674V25.6047H28.3023V25.1395ZM28.3023 25.6047H28.7674V26.0698H28.3023V25.6047ZM27.8372 25.6047H28.3023V26.0698H27.8372V25.6047ZM27.3721 25.6047H27.8372V26.0698H27.3721V25.6047ZM26.907 25.6047H27.3721V26.0698H26.907V25.6047ZM28.7674 25.1395H29.2326V25.6047H28.7674V25.1395ZM29.2326 25.1395H29.6977V25.6047H29.2326V25.1395ZM28.7674 25.6047H29.2326V26.0698H28.7674V25.6047ZM29.6977 24.6744H30.1628V25.1395H29.6977V24.6744ZM29.6977 24.2093H30.1628V24.6744H29.6977V24.2093ZM26.907 16.7674H27.3721V17.2326H26.907V16.7674ZM27.3721 16.7674H27.8372V17.2326H27.3721V16.7674ZM27.3721 16.3023H27.8372V16.7674H27.3721V16.3023ZM25.0465 16.7674H25.5116V17.2326H25.0465V16.7674ZM25.5116 16.7674H25.9767V17.2326H25.5116V16.7674ZM25.9767 16.7674H26.4419V17.2326H25.9767V16.7674ZM24.5814 16.7674H25.0465V17.2326H24.5814V16.7674ZM25.0465 16.3023H25.5116V16.7674H25.0465V16.3023ZM25.5116 16.3023H25.9767V16.7674H25.5116V16.3023ZM26.907 17.2326H27.3721V17.6977H26.907V17.2326ZM21.7907 25.6047H22.2558V26.0698H21.7907V25.6047ZM21.3256 26.0698H21.7907V26.5349H21.3256V26.0698ZM29.2326 24.6744H29.6977V25.1395H29.2326V24.6744ZM26.907 24.6744H27.3721V25.1395H26.907V24.6744ZM22.7209 19.093H23.186V19.5581H22.7209V19.093ZM22.2558 19.093H22.7209V19.5581H22.2558V19.093ZM22.2558 19.5581H22.7209V20.0233H22.2558V19.5581ZM22.7209 19.5581H23.186V20.0233H22.7209V19.5581ZM22.7209 20.9535H23.186V21.4186H22.7209V20.9535ZM22.2558 20.9535H22.7209V21.4186H22.2558V20.9535ZM22.2558 21.4186H22.7209V21.8837H22.2558V21.4186ZM22.7209 21.4186H23.186V21.8837H22.7209V21.4186ZM21.7907 19.093H22.2558V19.5581H21.7907V19.093ZM21.3256 19.093H21.7907V19.5581H21.3256V19.093ZM21.3256 19.5581H21.7907V20.0233H21.3256V19.5581ZM21.7907 19.5581H22.2558V20.0233H21.7907V19.5581ZM21.7907 20.9535H22.2558V21.4186H21.7907V20.9535ZM21.3256 20.9535H21.7907V21.4186H21.3256V20.9535ZM21.3256 21.4186H21.7907V21.8837H21.3256V21.4186ZM21.7907 21.4186H22.2558V21.8837H21.7907V21.4186Z" fill="#2671C7"/>
<defs>
<filter id="filter0_d_0_1" x="0" y="0" width="50.4264" height="50.4264" filterUnits="userSpaceOnUse" color-interpolation-filters="sRGB">
<feFlood flood-opacity="0" result="BackgroundImageFix"/>
<feColorMatrix in="SourceAlpha" type="matrix" values="0 0 0 0 0 0 0 0 0 0 0 0 0 0 0 0 0 0 127 0" result="hardAlpha"/>
<feOffset dy="4"/>
<feGaussianBlur stdDeviation="2"/>
<feComposite in2="hardAlpha" operator="out"/>
<feColorMatrix type="matrix" values="0 0 0 0 0 0 0 0 0 0 0 0 0 0 0 0 0 0 0.25 0"/>
<feBlend mode="normal" in2="BackgroundImageFix" result="effect1_dropShadow_0_1"/>
<feBlend mode="normal" in="SourceGraphic" in2="effect1_dropShadow_0_1" result="shape"/>
</filter>
<filter id="filter1_d_0_1" x="8" y="8" width="35" height="35" filterUnits="userSpaceOnUse" color-interpolation-filters="sRGB">
<feFlood flood-opacity="0" result="BackgroundImageFix"/>
<feColorMatrix in="SourceAlpha" type="matrix" values="0 0 0 0 0 0 0 0 0 0 0 0 0 0 0 0 0 0 127 0" result="hardAlpha"/>
<feOffset dy="4"/>
<feGaussianBlur stdDeviation="2"/>
<feComposite in2="hardAlpha" operator="out"/>
<feColorMatrix type="matrix" values="0 0 0 0 0 0 0 0 0 0 0 0 0 0 0 0 0 0 0.25 0"/>
<feBlend mode="normal" in2="BackgroundImageFix" result="effect1_dropShadow_0_1"/>
<feBlend mode="normal" in="SourceGraphic" in2="effect1_dropShadow_0_1" result="shape"/>
</filter>
</defs>
</svg>
