<svg width="644" height="468" viewBox="0 0 644 468" fill="none" xmlns="http://www.w3.org/2000/svg">
<g clip-path="url(#clip0_2003_386)">
<path d="M89.0618 446.454C90.226 448.783 91.1962 450.918 92.1663 452.665C93.3305 454.8 94.1067 456.547 94.8828 458.1C95.4649 459.459 96.241 461.012 97.0172 462.371C99.1516 458.683 101.868 453.442 104.779 446.454H111.182C111.376 446.454 111.57 446.648 111.57 446.842C111.57 447.036 111.376 447.036 111.182 447.036C110.017 447.036 109.241 447.424 108.853 447.813C108.465 448.201 108.271 448.783 108.077 449.56C107.883 450.336 107.883 451.889 107.883 454.218C107.883 456.547 107.689 458.489 107.689 460.041C107.689 462.953 107.689 464.7 107.689 465.282C107.689 465.865 107.883 466.253 108.271 466.447C108.659 466.641 109.241 467.029 110.212 467.029C110.406 467.029 110.6 467.224 110.6 467.418C110.6 467.612 110.406 467.612 110.017 467.612H103.808H102.256C101.868 467.612 101.674 467.612 101.674 467.418C101.674 467.224 101.868 467.224 102.062 467.224C103.032 467.029 103.614 467.029 103.808 466.641C104.196 466.447 104.39 466.059 104.39 465.477C104.585 464.894 104.585 463.535 104.585 461.4L104.973 453.636L105.167 449.754C105.167 449.559 105.167 449.365 104.973 449.365C104.779 449.365 104.779 449.365 104.585 449.56L101.48 455.771C99.3456 459.847 98.1814 462.371 97.7933 463.535L96.8232 466.059C96.4351 466.835 96.241 467.224 96.241 467.224L96.047 467.418C95.853 467.418 95.853 467.224 95.6589 467.029C95.4649 466.447 94.4947 464.312 92.7484 460.624C91.7783 458.683 90.614 456.353 89.4498 453.83C88.0916 451.306 87.5095 449.948 87.3155 449.754C87.1214 449.559 87.1214 449.56 87.1214 449.56C86.9274 449.56 86.9274 449.754 86.9274 449.948L86.7334 459.653V462.953C86.7334 464.7 86.9274 465.865 87.5095 466.253C88.0916 466.641 88.6737 467.029 89.4498 467.029C90.0319 467.029 90.226 467.224 90.226 467.418C90.226 467.612 90.0319 467.612 89.8379 467.612H89.4498H88.4797H86.1513C85.1811 467.612 83.8229 467.612 82.2706 467.806C82.0765 467.806 82.0765 467.612 82.0765 467.612C82.0765 467.418 82.2706 467.224 82.6586 467.224C83.8228 467.224 84.599 466.835 84.9871 466.253C85.3751 465.671 85.7632 464.118 85.7632 461.788V458.877L85.9572 451.695C85.9572 449.948 85.7632 448.783 85.1811 448.201C84.599 447.618 84.0169 447.23 83.0467 447.036C82.6586 447.036 82.4646 446.842 82.4646 446.648C82.4646 446.454 82.6586 446.454 82.8527 446.454C83.0467 446.454 83.2407 446.454 83.4348 446.454H89.0618Z" fill="#FE5F55"/>
<path d="M130.197 446.648C130.585 447.813 130.779 449.559 131.167 451.695L130.973 451.889C130.973 451.889 130.779 451.889 130.779 451.695C130.003 450.53 129.421 449.56 128.645 448.977C128.063 448.395 127.287 448.007 126.704 447.618C126.122 447.23 124.764 447.23 123.212 447.23C121.66 447.23 120.495 447.23 119.525 447.424C119.525 447.618 119.331 447.813 119.331 448.007C119.331 448.007 119.331 448.201 119.331 448.395C119.137 449.171 119.137 451.501 119.137 455.383C119.137 455.577 119.137 455.771 119.137 455.965C119.913 455.965 120.495 455.965 120.883 455.965C122.242 455.965 123.212 455.771 123.794 455.383C124.376 454.995 124.958 454.024 125.346 452.859C125.346 452.665 125.54 452.471 125.734 452.471C125.928 452.471 126.122 452.665 126.122 452.859V453.442C126.122 454.218 125.928 455.189 125.928 456.159C125.928 457.712 125.928 458.877 125.928 460.041C125.928 460.43 125.734 460.624 125.54 460.624C125.346 460.624 125.346 460.43 125.152 460.236C124.958 458.877 124.376 458.1 123.794 457.518C123.018 456.936 121.466 456.742 119.137 456.742C119.137 457.518 119.137 458.877 119.137 460.624C119.137 462.953 119.137 464.312 119.331 464.894C119.525 465.477 119.913 466.059 120.495 466.447C121.077 466.835 122.048 467.029 123.6 467.029C127.869 467.029 130.391 465.671 131.749 462.759C131.943 462.371 132.137 462.177 132.137 462.177C132.331 462.177 132.331 462.371 132.331 462.565C132.331 462.759 132.331 462.759 132.331 462.953C132.331 463.147 132.137 463.924 131.943 465.282C131.943 465.477 131.749 466.447 131.361 467.806H124.57C123.6 467.806 122.242 467.806 120.301 467.612C118.361 467.612 116.809 467.418 115.256 467.418C113.898 467.418 113.122 467.418 112.928 467.418C112.734 467.418 112.928 467.224 112.928 467.224C112.928 467.029 113.122 466.835 113.51 466.835C114.674 466.835 115.45 466.447 115.839 465.865C116.227 465.282 116.421 463.73 116.421 461.206V457.906V454.8C116.421 454.218 116.421 453.053 116.227 451.306C116.033 449.56 116.033 448.589 116.033 448.395C116.033 448.201 115.839 447.813 115.45 447.618C115.256 447.424 114.48 447.23 113.704 446.842C113.51 446.842 113.316 446.648 113.316 446.454C113.316 446.26 113.51 446.26 113.898 446.26L117.197 446.454C118.361 446.454 121.272 446.454 125.734 446.454C128.645 446.648 130.197 446.648 130.197 446.648Z" fill="#FE5F55"/>
<path d="M141.063 446.454H144.362C148.63 446.454 151.735 447.424 153.869 449.56C156.004 451.695 157.168 454.218 157.168 457.324C157.168 459.459 156.586 461.4 155.616 463.147C154.645 464.7 153.287 466.059 151.735 466.835C150.183 467.612 148.048 468 145.526 468C144.944 468 144.167 468 143.391 468C141.839 467.806 140.869 467.806 140.675 467.806C137.182 467.806 135.048 467.806 134.466 468C134.078 468 133.884 468 133.884 467.806C133.884 467.612 133.884 467.612 134.078 467.612C134.272 467.612 134.66 467.418 135.242 467.418C136.018 467.224 136.794 467.029 136.988 466.447C137.376 465.865 137.57 464.118 137.57 461.206L137.764 452.665C137.764 451.695 137.764 450.724 137.57 449.754C137.376 448.783 137.182 448.201 136.988 448.007C136.794 447.813 136.212 447.618 135.63 447.424C135.242 447.424 135.048 447.23 135.048 447.036C135.048 446.842 135.242 446.648 135.436 446.648C135.63 446.648 136.212 446.648 137.376 446.842C138.54 447.036 139.705 446.454 141.063 446.454ZM140.481 461.983C140.481 463.341 140.481 464.506 140.675 465.088C140.869 465.671 141.257 466.253 141.839 466.641C142.421 467.029 143.391 467.224 144.75 467.224C146.69 467.224 148.242 466.835 149.406 465.865C150.571 464.894 151.541 463.73 152.317 462.177C153.093 460.624 153.287 459.071 153.287 457.324C153.287 454.8 152.511 452.471 150.959 450.336C149.406 448.201 147.078 447.23 143.779 447.23C142.227 447.23 141.451 447.23 141.257 447.424C141.063 447.618 140.869 447.812 140.869 448.201C140.869 448.589 140.869 449.365 140.675 450.53C140.481 452.083 140.481 453.248 140.481 454.218L140.287 458.683C140.481 460.624 140.481 461.788 140.481 461.983Z" fill="#FE5F55"/>
<path d="M160.855 446.26H163.765H168.228C168.81 446.26 169.004 446.454 169.004 446.648C169.004 446.842 168.81 446.842 168.616 447.036C167.452 447.23 166.676 447.618 166.482 448.395C166.093 449.171 166.093 451.695 166.093 456.159C166.093 457.906 166.093 459.653 166.287 461.788C166.481 463.924 166.482 465.088 166.482 465.477C166.676 465.865 166.87 466.253 167.064 466.447C167.452 466.641 167.84 466.835 168.81 467.029C169.004 467.029 169.198 467.224 169.198 467.418C169.198 467.612 169.004 467.612 168.81 467.612H164.735H161.243C160.855 467.612 160.66 467.418 160.66 467.224C160.66 467.029 160.855 466.835 161.049 466.835C162.019 466.835 162.601 466.447 162.795 465.865C162.989 465.282 162.989 463.147 162.989 459.653C162.989 456.353 162.989 453.636 162.989 451.501C162.989 449.365 162.795 448.201 162.407 447.618C162.213 447.23 161.631 446.842 160.855 446.842C160.466 446.842 160.466 446.648 160.466 446.454C160.466 446.454 160.466 446.26 160.855 446.26Z" fill="#FE5F55"/>
<path d="M181.034 447.424C180.258 447.424 179.676 447.424 179.288 447.424C176.959 447.424 175.213 447.813 174.243 448.783C173.273 449.754 172.691 450.53 172.497 451.306C172.497 451.501 172.303 451.695 172.109 451.695C171.914 451.695 171.914 451.695 171.72 451.501C171.72 450.142 171.914 448.589 172.303 446.26C172.885 446.26 173.079 446.26 173.273 446.26C174.049 446.26 175.213 446.26 176.571 446.454C178.124 446.454 180.452 446.648 183.557 446.648C186.661 446.648 188.795 446.648 189.766 446.454C190.736 446.454 191.9 446.26 193.452 446.26C193.646 447.036 193.646 447.813 193.646 448.589C193.646 449.56 193.84 450.142 193.84 450.53V450.724C193.84 450.918 193.646 451.112 193.452 451.112C193.258 451.112 193.258 451.112 193.064 450.918C193.064 450.918 192.676 450.53 192.482 449.948C191.9 449.171 191.318 448.395 190.736 448.007C190.154 447.618 189.378 447.23 188.795 447.23C188.019 447.036 186.467 447.036 184.333 447.036C184.139 448.589 184.139 450.53 184.139 452.665C184.139 459.459 184.333 463.535 184.527 464.894C184.915 466.059 185.885 466.835 187.631 466.835C188.019 466.835 188.213 466.835 188.213 467.029C188.213 467.224 188.019 467.418 187.631 467.418H177.736C177.541 467.418 177.347 467.224 177.347 467.029C177.347 466.835 177.541 466.641 178.124 466.641C178.9 466.641 179.676 466.447 180.258 465.865C180.84 465.477 181.034 464.7 181.228 463.924C181.228 463.147 181.422 460.818 181.422 456.936C181.228 453.83 181.228 450.53 181.034 447.424Z" fill="#FE5F55"/>
<path d="M212.856 446.648C213.244 447.813 213.438 449.559 213.826 451.695L213.632 451.889C213.632 451.889 213.438 451.889 213.438 451.695C212.662 450.53 212.08 449.56 211.303 448.977C210.721 448.395 209.945 448.007 209.363 447.618C208.781 447.23 207.423 447.23 205.87 447.23C204.318 447.23 203.154 447.23 202.184 447.424C202.184 447.618 201.99 447.813 201.99 448.007C201.99 448.007 201.99 448.201 201.99 448.395C201.796 449.171 201.796 451.501 201.796 455.383C201.796 455.577 201.796 455.771 201.796 455.965C202.572 455.965 203.154 455.965 203.542 455.965C204.9 455.965 205.87 455.771 206.453 455.383C207.035 454.995 207.617 454.024 208.005 452.859C208.005 452.665 208.199 452.471 208.393 452.471C208.587 452.471 208.781 452.665 208.781 452.859V453.442C208.781 454.218 208.587 455.189 208.587 456.159C208.587 457.712 208.587 458.877 208.587 460.041C208.587 460.43 208.393 460.624 208.199 460.624C208.005 460.624 208.005 460.43 207.811 460.236C207.617 458.877 207.035 458.1 206.453 457.518C205.676 456.936 204.124 456.742 201.796 456.742C201.796 457.518 201.796 458.877 201.796 460.624C201.796 462.953 201.796 464.312 201.99 464.894C202.184 465.477 202.572 466.059 203.154 466.447C203.736 466.835 204.706 467.029 206.258 467.029C210.527 467.029 213.05 465.671 214.408 462.759C214.602 462.371 214.796 462.177 214.796 462.177C214.99 462.177 214.99 462.371 214.99 462.565C214.99 462.759 214.99 462.759 214.99 462.953C214.99 463.147 214.796 463.924 214.602 465.282C214.602 465.477 214.408 466.447 214.02 467.806H207.229C206.258 467.806 204.9 467.806 202.96 467.612C201.02 467.612 199.467 467.418 197.915 467.418C196.557 467.418 195.781 467.418 195.587 467.418C195.393 467.418 195.587 467.224 195.587 467.224C195.587 467.029 195.781 466.835 196.169 466.835C197.333 466.835 198.109 466.447 198.497 465.865C198.885 465.282 199.079 463.73 199.079 461.206V457.906V454.8C199.079 454.218 199.079 453.053 198.885 451.306C198.691 449.56 198.691 448.589 198.691 448.395C198.691 448.201 198.497 447.813 198.109 447.618C197.915 447.424 197.139 447.23 196.363 446.842C196.169 446.842 195.975 446.648 195.975 446.454C195.975 446.26 196.169 446.26 196.557 446.26L199.855 446.454C201.02 446.454 203.93 446.454 208.393 446.454C211.303 446.648 212.856 446.648 212.856 446.648Z" fill="#FE5F55"/>
<path d="M229.543 456.742C231.095 457.324 232.065 458.1 232.647 458.683C233.229 459.459 233.617 460.43 234.005 461.983C234.394 463.924 234.782 465.282 235.558 465.865C236.334 466.447 237.11 466.835 238.08 466.835C238.274 466.835 238.468 467.029 238.468 467.224C238.468 467.418 238.274 467.418 237.886 467.418C234.976 467.418 233.035 467.224 232.453 467.029C231.871 466.835 231.289 465.671 231.095 463.73C230.901 461.788 230.513 460.43 230.125 459.459C229.737 458.489 229.349 457.906 228.572 457.324C227.796 456.742 226.826 456.547 225.274 456.547C224.692 456.547 224.11 456.547 223.334 456.742C223.334 457.324 223.334 458.1 223.334 458.877C223.334 461.594 223.334 463.341 223.528 464.312C223.528 465.088 223.916 465.671 224.304 466.059C224.692 466.447 225.274 466.641 226.244 466.641C226.632 466.641 226.826 466.835 226.826 466.835C226.826 467.029 226.632 467.224 226.05 467.224H218.095C217.707 467.224 217.318 467.029 217.318 466.835C217.318 466.641 217.513 466.641 217.901 466.641C218.677 466.641 219.259 466.447 219.647 466.253C220.035 466.059 220.229 465.671 220.423 465.088C220.617 464.506 220.617 463.535 220.617 462.177V458.877V453.83C220.617 451.306 220.617 449.559 220.423 448.783C220.229 448.007 220.035 447.424 219.841 447.036C219.647 446.648 218.871 446.454 217.901 446.454C217.707 446.454 217.513 446.26 217.513 446.26C217.513 446.066 217.707 446.066 218.095 446.066L227.602 445.871C230.319 445.871 232.065 446.454 233.229 447.424C234.393 448.395 234.976 449.754 234.976 451.112C234.976 452.083 234.782 452.859 234.199 453.636C233.811 454.412 233.229 454.995 232.453 455.383C231.677 455.771 230.901 456.353 229.543 456.742ZM223.528 456.353C225.662 456.353 227.214 456.159 228.184 455.965C229.155 455.771 230.125 455.189 230.901 454.412C231.677 453.636 232.065 452.665 232.065 451.501C232.065 450.336 231.677 449.171 230.901 448.395C230.125 447.424 228.767 447.036 227.02 447.036C226.05 447.036 225.08 447.23 223.916 447.424C223.722 450.336 223.722 452.665 223.722 454.412C223.334 454.8 223.334 455.577 223.528 456.353Z" fill="#FE5F55"/>
<path d="M251.857 456.742C253.409 457.324 254.379 458.1 254.961 458.683C255.543 459.459 255.931 460.43 256.319 461.983C256.707 463.924 257.096 465.282 257.872 465.865C258.454 466.447 259.424 466.835 260.394 466.835C260.588 466.835 260.782 467.029 260.782 467.224C260.782 467.418 260.588 467.418 260.2 467.418C257.29 467.418 255.349 467.224 254.767 467.029C254.185 466.835 253.603 465.671 253.409 463.73C253.215 461.788 252.827 460.43 252.439 459.459C252.051 458.489 251.663 457.906 250.886 457.324C250.11 456.742 249.14 456.547 247.588 456.547C247.006 456.547 246.424 456.547 245.648 456.742C245.648 457.324 245.648 458.1 245.648 458.877C245.648 461.594 245.648 463.341 245.842 464.312C245.842 465.088 246.23 465.671 246.618 466.059C247.006 466.447 247.588 466.641 248.558 466.641C248.946 466.641 249.14 466.835 249.14 466.835C249.14 467.029 248.946 467.224 248.364 467.224H240.409C240.021 467.224 239.632 467.029 239.632 466.835C239.632 466.641 239.826 466.641 240.215 466.641C240.991 466.641 241.573 466.447 241.961 466.253C242.349 466.059 242.543 465.671 242.737 465.088C242.931 464.506 242.931 463.535 242.931 462.177V458.877V453.83C242.931 451.306 242.931 449.559 242.737 448.783C242.543 448.007 242.349 447.424 242.155 447.036C241.961 446.842 241.185 446.454 240.215 446.454C240.021 446.454 239.826 446.26 239.826 446.26C239.826 446.066 240.021 446.066 240.409 446.066L249.916 445.871C252.633 445.871 254.379 446.454 255.543 447.424C256.707 448.395 257.29 449.754 257.29 451.112C257.29 452.083 257.096 452.859 256.513 453.636C256.125 454.412 255.543 454.995 254.767 455.383C254.379 455.965 253.215 456.353 251.857 456.742ZM245.842 456.353C247.976 456.353 249.528 456.159 250.498 455.965C251.469 455.771 252.439 455.189 253.215 454.412C253.991 453.636 254.379 452.665 254.379 451.501C254.379 450.336 253.991 449.171 253.215 448.395C252.439 447.424 251.08 447.036 249.334 447.036C248.364 447.036 247.394 447.23 246.036 447.424C245.842 450.336 245.842 452.665 245.842 454.412C245.648 454.8 245.648 455.577 245.842 456.353Z" fill="#FE5F55"/>
<path d="M271.454 446.066H272.23C273.394 448.589 275.141 452.665 277.275 458.683C278.633 462.565 279.604 464.894 279.992 465.671C280.574 466.447 281.35 467.029 282.514 467.029C282.902 467.029 283.096 467.224 283.096 467.418C283.096 467.612 283.096 467.612 282.902 467.612H282.708C281.738 467.612 280.38 467.418 279.021 467.418C276.693 467.418 275.141 467.418 274.559 467.612C274.171 467.612 273.976 467.612 273.976 467.418C273.976 467.224 274.171 467.224 274.365 467.224C275.335 467.224 275.917 467.029 276.305 466.835C276.693 466.641 276.887 466.253 276.887 465.865C276.887 465.477 276.499 464.312 275.917 462.371L274.947 459.653C274.365 459.653 271.842 459.653 267.379 459.653C266.215 462.565 265.633 464.506 265.633 465.282C265.633 465.865 265.827 466.447 266.409 466.835C266.991 467.224 267.573 467.418 267.961 467.418C268.35 467.418 268.544 467.612 268.544 467.806C268.544 467.806 268.544 468 268.35 468C266.603 468 265.633 467.806 265.245 467.806C263.499 467.806 262.14 467.806 261.558 467.806C261.17 467.806 260.976 467.806 260.976 467.612C260.976 467.418 261.17 467.418 261.364 467.224C262.528 467.029 263.499 466.253 264.275 464.7C264.857 463.147 266.021 460.43 267.379 456.547C268.544 452.665 269.902 449.365 271.454 446.066ZM270.678 449.56C269.708 451.501 268.544 454.606 267.185 458.489C268.349 458.489 269.126 458.489 269.514 458.489H273.976C273.588 457.324 273.006 455.965 272.23 454.024C271.648 451.889 271.066 450.336 270.678 449.56Z" fill="#FE5F55"/>
<path d="M289.305 446.648C289.887 447.424 291.052 448.783 292.604 450.724L297.843 456.742L302.888 462.565C303.082 460.624 303.082 458.1 303.082 454.995C303.082 452.665 303.082 451.112 302.888 450.336C302.694 449.56 302.5 448.977 301.723 448.395C301.141 447.813 300.365 447.618 299.395 447.618C299.007 447.618 298.813 447.618 298.813 447.424C298.813 447.23 298.813 447.23 299.007 447.23C299.007 447.23 299.783 447.23 301.141 447.036C302.5 447.036 303.664 447.036 304.634 447.036H306.768H307.156C307.544 447.036 307.738 447.036 307.738 447.23C307.738 447.424 307.544 447.424 307.35 447.618C306.186 447.813 305.41 448.007 305.022 448.395C304.634 448.783 304.246 449.56 304.246 450.336C304.246 451.112 304.052 454.024 304.052 458.877L303.858 467.418C303.858 467.806 303.664 468 303.47 468H303.276C303.276 468 302.694 467.418 301.917 466.447C301.141 465.477 299.977 464.118 298.619 462.759C297.261 461.4 296.29 460.041 295.708 459.265C294.156 457.324 293.186 456.159 292.604 455.771C291.052 454.024 290.081 453.053 289.887 452.665C289.693 452.277 289.499 452.277 289.305 452.277C289.111 452.277 289.111 452.471 289.111 452.859V455.383C289.111 458.489 289.111 461.012 289.305 462.953C289.499 464.894 289.693 465.865 289.887 466.253C290.081 466.641 290.469 466.835 290.857 467.224C291.246 467.612 291.828 467.806 292.41 467.806C293.186 467.806 293.38 468 293.38 468.194C293.38 468.388 293.186 468.388 292.798 468.388H285.036C284.648 468.388 284.454 468.388 284.454 468.194C284.454 468 284.648 467.806 285.036 467.806C286.395 467.806 287.171 467.418 287.753 466.835C288.141 466.253 288.335 465.088 288.335 463.147L288.141 457.518C288.141 454.218 288.141 452.277 287.947 451.695C287.753 451.112 287.365 450.336 286.783 449.56C286.201 448.783 285.425 448.201 284.648 448.201C284.26 448.201 284.066 448.007 284.066 448.007C284.066 447.813 284.26 447.618 284.842 447.618L289.305 446.648Z" fill="#FE5F55"/>
<path d="M326.56 446.648C326.948 447.813 327.142 449.559 327.53 451.695L327.336 451.889C327.336 451.889 327.142 451.889 327.142 451.695C326.366 450.53 325.784 449.56 325.007 448.977C324.425 448.395 323.649 448.007 323.067 447.618C322.291 447.424 321.127 447.23 319.575 447.23C318.022 447.23 316.858 447.23 315.888 447.424C315.888 447.618 315.694 447.813 315.694 448.007C315.694 448.007 315.694 448.201 315.694 448.395C315.5 449.171 315.5 451.501 315.5 455.383C315.5 455.577 315.5 455.771 315.5 455.965C316.276 455.965 316.858 455.965 317.246 455.965C318.604 455.965 319.575 455.771 320.157 455.383C320.739 454.995 321.321 454.024 321.709 452.859C321.709 452.665 321.903 452.471 322.097 452.471C322.291 452.471 322.485 452.665 322.485 452.859V453.442C322.485 454.218 322.291 455.189 322.291 456.159C322.291 457.712 322.291 458.877 322.291 460.041C322.291 460.43 322.097 460.624 321.903 460.624C321.709 460.624 321.709 460.43 321.515 460.236C321.321 458.877 320.739 458.1 320.157 457.518C319.381 456.936 317.828 456.742 315.5 456.742C315.5 457.518 315.5 458.877 315.5 460.624C315.5 462.953 315.5 464.312 315.694 464.894C315.888 465.477 316.276 466.059 316.858 466.447C317.44 466.835 318.41 467.029 319.963 467.029C324.231 467.029 326.754 465.671 328.112 462.759C328.306 462.371 328.5 462.177 328.5 462.177C328.694 462.177 328.694 462.371 328.694 462.565C328.694 462.759 328.694 462.759 328.694 462.953C328.694 463.147 328.5 463.924 328.306 465.282C328.306 465.477 328.112 466.447 327.724 467.806H320.933C319.963 467.806 318.604 467.806 316.664 467.612C314.724 467.612 313.171 467.418 311.619 467.418C310.067 467.418 309.485 467.418 309.291 467.418C309.097 467.418 309.291 467.224 309.291 467.224C309.291 467.029 309.485 466.835 309.873 466.835C311.037 466.835 311.813 466.447 312.201 465.865C312.589 465.282 312.783 463.73 312.783 461.206V457.906V454.8C312.783 454.218 312.783 453.053 312.589 451.306C312.395 449.56 312.395 448.589 312.395 448.395C312.395 448.201 312.201 447.813 311.813 447.618C311.619 447.424 310.843 447.23 310.067 446.842C309.873 446.842 309.679 446.648 309.679 446.454C309.679 446.26 309.873 446.26 310.261 446.26L313.559 446.454C314.724 446.454 317.634 446.454 322.097 446.454C325.007 446.648 326.56 446.648 326.56 446.648Z" fill="#FE5F55"/>
<path d="M340.336 446.066H341.112C342.277 448.589 344.023 452.665 346.157 458.683C347.516 462.565 348.486 464.894 348.874 465.671C349.456 466.447 350.232 467.029 351.396 467.029C351.784 467.029 351.978 467.224 351.978 467.418C351.978 467.612 351.978 467.612 351.784 467.612H351.59C350.62 467.612 349.262 467.418 347.904 467.418C345.575 467.418 344.023 467.418 343.441 467.612C343.053 467.612 342.859 467.612 342.859 467.418C342.859 467.224 343.053 467.224 343.247 467.224C344.217 467.224 344.799 467.029 345.187 466.835C345.575 466.641 345.769 466.253 345.769 465.865C345.769 465.477 345.381 464.312 344.799 462.371L343.829 459.653C343.247 459.653 340.724 459.653 336.262 459.653C335.097 462.565 334.515 464.506 334.515 465.282C334.515 465.865 334.709 466.447 335.291 466.835C335.873 467.224 336.456 467.418 336.844 467.418C337.232 467.418 337.426 467.612 337.426 467.806C337.426 467.806 337.426 468 337.232 468C335.485 468 334.515 467.806 334.127 467.806C332.381 467.806 331.023 467.806 330.441 467.806C330.052 467.806 329.858 467.806 329.858 467.612C329.858 467.418 330.052 467.418 330.246 467.224C331.411 467.029 332.381 466.253 333.157 464.7C333.933 463.147 334.903 460.43 336.262 456.547C337.426 452.665 338.978 449.365 340.336 446.066ZM339.754 449.56C338.784 451.501 337.62 454.606 336.262 458.489C337.426 458.489 338.202 458.489 338.59 458.489H343.053C342.665 457.324 342.083 455.965 341.306 454.024C340.53 451.889 339.948 450.336 339.754 449.56Z" fill="#FE5F55"/>
<path d="M358.381 446.648C358.964 447.424 360.128 448.783 361.68 450.724L366.919 456.742L371.964 462.565C372.158 460.624 372.158 458.1 372.158 454.995C372.158 452.665 372.158 451.112 371.964 450.336C371.77 449.56 371.576 448.977 370.8 448.395C370.218 447.813 369.441 447.618 368.471 447.618C368.083 447.618 367.889 447.618 367.889 447.424C367.889 447.23 367.889 447.23 368.083 447.23C368.083 447.23 368.859 447.23 370.218 447.036C371.576 447.036 372.74 447.036 373.71 447.036H375.845H376.233C376.621 447.036 376.815 447.036 376.815 447.23C376.815 447.424 376.621 447.424 376.427 447.618C375.262 447.813 374.486 448.007 374.098 448.395C373.71 448.783 373.322 449.56 373.322 450.336C373.322 451.112 373.128 454.024 373.128 458.877L372.934 467.418C372.934 467.806 372.74 468 372.546 468H372.352C372.352 468 371.77 467.418 370.994 466.447C370.218 465.477 369.053 464.118 367.695 462.759C366.337 461.4 365.367 460.041 364.785 459.265C363.232 457.324 362.262 456.159 361.68 455.771C360.128 454.024 359.158 453.053 358.964 452.665C358.77 452.277 358.576 452.277 358.381 452.277C358.187 452.277 358.187 452.471 358.187 452.859V455.383C358.187 458.489 358.187 461.012 358.381 462.953C358.576 464.894 358.77 465.865 358.964 466.253C359.158 466.641 359.546 466.835 359.934 467.224C360.322 467.612 360.904 467.806 361.486 467.806C362.262 467.806 362.456 468 362.456 468.194C362.456 468.388 362.262 468.388 361.874 468.388H354.113C353.725 468.388 353.531 468.388 353.531 468.194C353.531 468 353.725 467.806 354.113 467.806C355.471 467.806 356.247 467.418 356.829 466.835C357.217 466.253 357.411 465.088 357.411 463.147L357.217 457.518C357.217 454.218 357.217 452.277 357.023 451.695C356.829 451.112 356.441 450.336 355.859 449.56C355.277 448.783 354.501 448.201 353.725 448.201C353.337 448.201 353.143 448.007 353.143 448.007C353.143 447.813 353.337 447.618 353.919 447.618L358.381 446.648Z" fill="#FE5F55"/>
<path d="M403.397 456.547L403.591 452.083C403.591 450.142 403.397 448.783 403.009 448.201C402.621 447.618 402.039 447.23 401.069 447.23C400.487 447.23 400.293 447.036 400.293 446.842C400.293 446.648 400.487 446.454 400.681 446.454L405.338 446.648H409.412C409.8 446.648 409.8 446.648 409.8 446.842C409.8 447.036 409.606 447.036 409.412 447.036C408.636 447.036 408.054 447.23 407.472 447.424C407.084 447.618 406.696 448.007 406.502 448.589C406.308 449.171 406.308 450.724 406.114 453.442C405.92 456.159 405.92 458.1 405.92 459.265V463.147C405.92 464.312 406.114 465.088 406.308 465.477C406.502 465.865 406.89 466.059 407.278 466.253C407.666 466.447 408.248 466.641 408.636 466.641C409.024 466.641 409.218 466.835 409.218 467.029C409.218 467.224 409.024 467.224 408.83 467.224L403.785 467.029L400.487 467.224C400.099 467.224 399.905 467.224 399.905 467.029C399.905 466.835 400.099 466.835 400.293 466.835C401.069 466.835 401.651 466.641 402.039 466.447C402.233 466.253 402.427 465.865 402.621 465.477C402.815 465.088 402.815 464.118 402.815 462.953V457.13C401.845 457.13 400.875 457.13 400.099 457.13C396.024 457.13 393.308 457.13 392.143 457.324C392.143 459.459 391.949 461.012 391.949 462.371C391.949 463.924 391.949 464.7 391.949 465.088C391.949 465.477 392.143 465.671 392.531 466.059C392.92 466.447 393.308 466.641 393.89 466.641C394.278 466.641 394.472 466.835 394.472 467.029C394.472 467.224 394.278 467.224 394.084 467.224C394.084 467.224 393.89 467.224 393.696 467.224C393.114 467.224 391.949 467.224 390.009 467.224C388.069 467.224 386.904 467.224 386.322 467.418H386.128C385.934 467.418 385.74 467.418 385.74 467.224C385.74 467.029 385.934 466.835 386.322 466.835C387.098 466.835 387.681 466.447 388.069 466.059C388.457 465.671 388.651 464.312 388.845 461.983C389.039 459.653 389.039 456.742 389.039 453.442C389.039 450.724 388.845 448.977 388.651 448.201C388.457 447.424 387.681 447.036 386.71 447.036C386.516 447.036 386.322 446.842 386.322 446.842C386.322 446.648 386.516 446.454 387.098 446.454H393.502C393.89 446.454 394.278 446.454 394.278 446.454L394.472 446.648C394.472 446.842 394.278 446.842 394.084 447.036C393.114 447.23 392.337 447.424 392.143 447.618C391.949 447.813 391.755 449.56 391.755 452.859C391.755 453.248 391.755 454.412 391.755 456.353C392.919 456.353 394.084 456.547 395.636 456.547C398.546 456.547 400.681 456.547 403.397 456.547Z" fill="#FE5F55"/>
<path d="M412.905 446.26H415.816H420.278C420.861 446.26 421.055 446.454 421.055 446.648C421.055 446.842 420.861 446.842 420.667 447.036C419.502 447.23 418.726 447.618 418.532 448.395C418.338 449.171 418.144 451.695 418.144 456.159C418.144 457.906 418.144 459.653 418.338 461.788C418.338 463.924 418.532 465.088 418.532 465.477C418.726 465.865 418.92 466.253 419.114 466.447C419.502 466.641 419.89 466.835 420.861 467.029C421.055 467.029 421.249 467.224 421.249 467.418C421.249 467.612 421.055 467.612 420.861 467.612H416.786H413.293C412.905 467.612 412.711 467.418 412.711 467.224C412.711 467.029 412.905 466.835 413.099 466.835C414.069 466.835 414.651 466.447 414.845 465.865C415.04 465.282 415.04 463.147 415.04 459.653C415.04 456.353 415.04 453.636 415.04 451.501C415.04 449.365 414.846 448.201 414.457 447.618C414.263 447.23 413.681 446.842 412.905 446.842C412.517 446.842 412.517 446.648 412.517 446.454C412.711 446.454 412.711 446.26 412.905 446.26Z" fill="#FE5F55"/>
<path d="M430.756 446.454H434.055C438.324 446.454 441.428 447.424 443.563 449.56C445.697 451.695 446.861 454.218 446.861 457.324C446.861 459.459 446.279 461.4 445.309 463.147C444.339 464.7 442.98 466.059 441.428 466.835C439.876 467.612 437.742 468 435.219 468C434.637 468 433.861 468 433.085 468C431.532 467.806 430.562 467.806 430.368 467.806C426.876 467.806 424.741 467.806 424.159 468C423.771 468 423.577 468 423.577 467.806C423.577 467.612 423.577 467.612 423.771 467.612C423.965 467.612 424.353 467.418 424.935 467.418C425.711 467.224 426.488 467.029 426.682 466.447C427.07 465.865 427.264 464.118 427.264 461.206L427.458 452.665C427.458 451.695 427.458 450.724 427.264 449.754C427.07 448.783 426.876 448.201 426.682 448.007C426.488 447.813 425.905 447.618 425.323 447.424C424.935 447.424 424.741 447.23 424.741 447.036C424.741 446.842 424.935 446.648 425.129 446.648C425.323 446.648 425.905 446.648 427.07 446.842C428.234 447.036 429.398 446.454 430.756 446.454ZM430.174 461.983C430.174 463.341 430.174 464.506 430.368 465.088C430.562 465.671 430.95 466.253 431.532 466.641C432.115 467.029 433.085 467.224 434.443 467.224C436.383 467.224 437.936 466.835 439.1 465.865C440.264 464.894 441.234 463.73 442.01 462.177C442.786 460.624 442.98 459.071 442.98 457.324C442.98 454.8 442.204 452.471 440.652 450.336C439.1 448.201 436.771 447.23 433.473 447.23C431.92 447.23 431.144 447.23 430.95 447.424C430.756 447.424 430.562 447.812 430.562 448.201C430.562 448.589 430.562 449.365 430.368 450.53C430.174 452.083 430.174 453.248 430.174 454.218L429.98 458.683C430.174 460.624 430.174 461.788 430.174 461.983Z" fill="#FE5F55"/>
<path d="M466.459 446.648C466.847 447.813 467.041 449.559 467.429 451.695L467.235 451.889C467.235 451.889 467.041 451.889 467.041 451.695C466.265 450.53 465.682 449.56 464.906 448.977C464.324 448.395 463.548 448.007 462.966 447.618C462.19 447.424 461.026 447.23 459.473 447.23C457.921 447.23 456.757 447.23 455.787 447.424C455.787 447.618 455.593 447.813 455.593 448.007C455.593 448.007 455.593 448.201 455.593 448.395C455.399 449.171 455.399 451.501 455.399 455.383C455.399 455.577 455.399 455.771 455.399 455.965C456.175 455.965 456.757 455.965 457.145 455.965C458.503 455.965 459.473 455.771 460.055 455.383C460.638 454.995 461.22 454.024 461.608 452.859C461.608 452.665 461.802 452.471 461.996 452.471C462.19 452.471 462.384 452.665 462.384 452.859V453.442C462.384 454.218 462.19 455.189 462.19 456.159C462.19 457.712 462.19 458.877 462.19 460.041C462.19 460.43 461.996 460.624 461.802 460.624C461.608 460.624 461.608 460.43 461.414 460.236C461.22 458.877 460.638 458.1 460.055 457.518C459.279 456.936 457.727 456.742 455.399 456.742C455.399 457.518 455.399 458.877 455.399 460.624C455.399 462.953 455.399 464.312 455.593 464.894C455.787 465.477 456.175 466.059 456.757 466.447C457.339 466.835 458.309 467.029 459.861 467.029C464.13 467.029 466.653 465.671 468.011 462.759C468.205 462.371 468.399 462.177 468.399 462.177C468.593 462.177 468.593 462.371 468.593 462.565C468.593 462.759 468.593 462.759 468.593 462.953C468.593 463.147 468.399 463.924 468.205 465.282C468.205 465.477 468.011 466.447 467.623 467.806H460.832C459.861 467.806 458.503 467.806 456.563 467.612C454.622 467.612 453.07 467.418 451.518 467.418C449.966 467.418 449.384 467.418 449.19 467.418C448.995 467.418 449.19 467.224 449.19 467.224C449.19 467.029 449.384 466.835 449.772 466.835C450.936 466.835 451.712 466.447 452.1 465.865C452.488 465.282 452.682 463.73 452.682 461.206V457.906V454.8C452.682 454.218 452.682 453.053 452.488 451.306C452.294 449.56 452.294 448.589 452.294 448.395C452.294 448.201 452.1 447.813 451.712 447.618C451.324 447.424 450.742 447.23 449.966 446.842C449.772 446.842 449.578 446.648 449.578 446.454C449.578 446.26 449.772 446.26 450.16 446.26L453.458 446.454C454.622 446.454 457.533 446.454 461.996 446.454C464.906 446.648 466.459 446.648 466.459 446.648Z" fill="#FE5F55"/>
<path d="M480.429 446.066H481.205C482.369 448.589 484.116 452.665 486.25 458.683C487.608 462.565 488.578 464.894 488.967 465.671C489.549 466.447 490.325 467.029 491.489 467.029C491.877 467.029 492.071 467.224 492.071 467.418C492.071 467.612 492.071 467.612 491.877 467.612H491.683C490.713 467.612 489.355 467.418 487.996 467.418C485.668 467.418 484.116 467.418 483.534 467.612C483.146 467.612 482.951 467.612 482.951 467.418C482.951 467.224 483.146 467.224 483.34 467.224C484.31 467.224 484.892 467.029 485.28 466.835C485.668 466.641 485.862 466.253 485.862 465.865C485.862 465.477 485.474 464.312 484.892 462.371L483.922 459.653C483.34 459.653 480.817 459.653 476.354 459.653C475.19 462.565 474.608 464.506 474.608 465.282C474.608 465.865 474.802 466.447 475.384 466.835C475.966 467.224 476.548 467.418 476.936 467.418C477.324 467.418 477.519 467.612 477.519 467.806C477.519 467.806 477.519 468 477.324 468C475.578 468 474.608 467.806 474.22 467.806C472.474 467.806 471.115 467.806 470.533 467.806C470.145 467.806 469.951 467.806 469.951 467.612C469.951 467.418 470.145 467.418 470.339 467.224C471.503 467.029 472.474 466.253 473.25 464.7C474.026 463.147 474.996 460.43 476.354 456.547C477.519 452.665 478.877 449.365 480.429 446.066ZM479.653 449.56C478.683 451.501 477.519 454.606 476.16 458.489C477.324 458.489 478.101 458.489 478.489 458.489H482.951C482.563 457.324 481.981 455.965 481.205 454.024C480.623 451.889 480.041 450.336 479.653 449.56Z" fill="#FE5F55"/>
<path d="M500.803 468H500.415C499.832 466.835 499.25 465.477 498.668 463.924C498.086 462.371 496.922 459.653 495.176 455.965C493.429 452.277 492.459 450.142 492.071 449.365C491.489 448.589 491.101 448.201 490.713 447.813C490.325 447.618 489.937 447.424 489.549 447.424C489.161 447.424 488.967 447.23 488.967 447.036C488.967 446.842 489.355 446.648 490.131 446.648H497.116C497.698 446.648 498.086 446.842 498.086 447.036C498.086 447.23 497.892 447.23 497.698 447.424C496.34 447.424 495.564 448.007 495.564 448.977C495.564 449.171 495.564 449.56 495.758 449.948C495.952 450.336 496.728 452.277 498.086 455.577C499.444 459.071 500.609 461.594 501.385 463.341C501.773 462.565 502.355 460.43 503.519 457.324C504.683 454.218 505.265 452.083 505.459 451.306C504.683 449.171 504.101 448.007 503.713 447.813C503.325 447.618 502.937 447.424 502.161 447.23C501.773 447.23 501.579 447.036 501.579 446.842C501.579 446.648 501.967 446.454 502.743 446.454H509.728C510.116 446.454 510.504 446.454 510.504 446.454C510.698 446.454 510.698 446.648 510.698 446.648C510.698 446.842 510.504 446.842 509.922 447.036C508.758 447.23 508.176 447.813 508.176 448.783C508.176 450.336 509.922 454.995 513.221 462.953C513.803 461.206 514.579 459.459 515.161 457.518L516.907 452.665C517.49 451.306 517.684 450.336 517.684 449.948C517.684 449.56 517.878 449.171 517.878 448.977C517.878 447.618 517.296 447.036 515.937 447.036C515.549 447.036 515.549 446.842 515.549 446.648C515.549 446.454 515.549 446.454 515.743 446.454C515.937 446.454 516.131 446.454 516.519 446.454H520.4C521.564 446.454 522.146 446.454 522.34 446.454C522.535 446.454 522.534 446.648 522.534 446.842C522.534 447.036 522.34 447.036 522.146 447.036C520.982 447.036 520.012 447.813 519.43 448.977C518.848 450.142 517.296 454.218 514.967 460.818C513.803 464.312 512.833 466.641 512.445 467.612H512.057C511.28 465.282 510.31 463.147 509.534 461.206C508.758 459.265 507.594 456.353 506.042 452.665L500.803 468Z" fill="#FE5F55"/>
<path d="M530.49 446.066H531.266C532.43 448.589 534.177 452.665 536.311 458.683C537.669 462.565 538.639 464.894 539.027 465.671C539.61 466.447 540.386 467.029 541.55 467.029C541.938 467.029 542.132 467.224 542.132 467.418C542.132 467.612 542.132 467.612 541.938 467.612H541.744C540.774 467.612 539.415 467.418 538.057 467.418C535.729 467.418 534.177 467.418 533.594 467.612C533.206 467.612 533.012 467.612 533.012 467.418C533.012 467.224 533.206 467.224 533.4 467.224C534.371 467.224 534.953 467.029 535.341 466.835C535.729 466.641 535.923 466.253 535.923 465.865C535.923 465.477 535.535 464.312 534.953 462.371L533.983 459.653C533.4 459.653 530.878 459.653 526.415 459.653C525.251 462.565 524.669 464.506 524.669 465.282C524.669 465.865 524.863 466.447 525.445 466.835C526.027 467.224 526.609 467.418 526.997 467.418C527.385 467.418 527.579 467.612 527.579 467.806C527.579 467.806 527.579 468 527.385 468C525.639 468 524.669 467.806 524.281 467.806C522.535 467.806 521.176 467.806 520.594 467.806C520.206 467.806 520.012 467.806 520.012 467.612C520.012 467.418 520.206 467.418 520.4 467.224C521.564 467.029 522.535 466.253 523.311 464.7C524.087 463.147 525.057 460.43 526.415 456.547C527.579 452.665 528.938 449.365 530.49 446.066ZM529.714 449.56C528.744 451.501 527.579 454.606 526.221 458.489C527.385 458.489 528.162 458.489 528.55 458.489H533.012C532.624 457.324 532.042 455.965 531.266 454.024C530.684 451.889 530.102 450.336 529.714 449.56Z" fill="#FE5F55"/>
<path d="M551.834 456.547C552.416 455.965 553.386 454.606 554.55 452.859C555.714 451.112 556.491 449.948 556.685 449.56C556.879 449.171 557.073 448.783 557.073 448.589C557.073 448.201 556.879 447.813 556.49 447.618C556.102 447.424 555.52 447.23 555.132 447.23C554.744 447.23 554.55 447.23 554.55 447.036C554.55 446.842 554.938 446.648 555.52 446.648H561.535C562.118 446.648 562.312 446.842 562.312 447.036C562.312 447.23 562.118 447.23 561.923 447.23C561.341 447.23 560.759 447.424 560.177 447.618C559.595 447.813 558.819 448.589 558.043 449.56L555.326 453.248C553.774 455.189 552.998 456.353 552.998 456.742C552.804 457.324 552.804 458.489 552.804 460.818C552.804 463.73 552.998 465.477 553.192 465.865C553.386 466.447 554.162 466.641 555.52 466.835C555.908 466.835 556.102 467.029 556.102 467.224C556.102 467.418 555.908 467.612 555.52 467.612H551.252C550.281 467.612 549.311 467.612 548.729 467.612C548.147 467.612 547.759 467.612 547.759 467.612C547.371 467.612 547.177 467.418 547.177 467.224C547.177 467.029 547.371 467.029 547.565 467.029C548.535 467.029 549.311 466.641 549.699 465.865C550.087 465.088 550.281 464.118 550.281 462.565C550.281 461.012 550.281 459.653 550.087 458.683C550.087 458.489 549.505 457.518 548.729 455.965C547.759 454.412 546.789 452.859 545.431 450.918C544.072 448.977 543.296 448.007 542.714 447.618C542.132 447.23 541.55 447.036 541.162 447.036C540.774 447.036 540.58 446.842 540.58 446.648C540.58 446.454 540.58 446.454 540.774 446.454C540.968 446.454 541.162 446.454 541.744 446.454H548.729C549.117 446.454 549.505 446.454 549.505 446.454L549.699 446.648C549.699 446.842 549.505 446.842 549.311 446.842C547.953 447.036 547.371 447.424 547.371 448.007C547.371 448.395 547.565 448.977 548.147 449.754C547.953 450.918 549.311 453.053 551.834 456.547Z" fill="#FE5F55"/>
<path d="M263.887 341.246C265.439 341.052 266.603 340.858 267.767 340.664C270.096 340.47 271.26 341.246 272.036 343.381C273.394 347.263 273.2 351.146 272.036 354.834C270.678 359.104 269.514 363.375 267.379 367.451C265.633 370.751 264.663 374.245 263.305 377.739C263.111 378.127 262.917 378.515 262.917 378.903C262.917 379.292 262.917 379.68 263.111 379.874C263.305 380.262 263.693 380.262 264.081 380.262C264.469 380.262 264.857 380.068 265.051 379.874C265.439 379.68 265.827 379.486 266.021 379.097C267.767 377.35 269.32 375.603 270.872 373.662C272.812 371.333 274.753 369.004 276.693 366.674C277.275 365.898 277.663 365.122 278.051 364.345C278.245 363.957 278.633 363.18 279.021 362.986C279.992 362.792 280.962 362.792 281.932 362.792C281.932 363.375 281.932 364.151 281.738 364.733C280.574 369.198 279.603 373.468 278.439 377.933C278.439 378.127 278.633 378.515 278.827 378.903C278.827 378.903 279.409 378.903 279.603 378.709C281.738 376.962 283.678 375.021 285.619 373.08C287.559 371.139 289.111 369.004 291.052 367.257C292.604 365.898 294.544 365.122 296.29 364.345C297.067 363.957 297.649 363.375 298.037 362.404C298.619 360.075 301.335 358.134 303.664 358.134C305.022 358.134 305.992 358.91 306.186 360.463C306.38 361.628 306.186 362.986 306.186 364.345C306.186 365.51 305.604 366.869 306.962 367.839C308.515 369.004 310.261 369.004 311.813 368.227C313.365 367.257 314.918 366.286 316.276 364.927C317.828 363.569 318.992 362.016 320.351 360.463C321.515 359.298 322.873 357.939 324.037 356.775C324.425 356.387 325.202 355.998 325.784 355.804C328.306 355.028 329.664 355.998 329.082 358.522C328.888 360.075 328.112 361.628 327.53 363.18C327.336 363.763 326.948 364.345 326.754 364.927C326.56 366.286 327.142 366.869 328.5 366.48C328.888 366.286 329.47 366.286 329.858 365.898C334.903 362.598 339.948 359.298 343.441 354.057C344.217 352.698 345.575 351.534 346.933 350.563C348.292 349.399 350.232 349.981 351.202 351.34C351.202 351.534 351.396 351.534 351.396 351.728C351.396 351.922 351.396 352.31 351.202 352.504C350.426 353.669 349.456 354.445 348.874 355.61C348.292 356.581 348.098 357.551 347.71 358.522C347.516 359.492 347.127 360.657 347.516 361.433C347.516 361.628 347.71 361.822 347.904 361.822C348.098 362.016 348.486 362.016 348.68 361.822C350.038 361.433 351.396 360.463 352.754 359.881C353.919 359.104 355.277 358.328 356.441 357.551C358.769 355.804 360.904 354.057 363.038 351.922C364.979 349.981 366.725 347.846 368.277 345.516C369.441 343.769 370.024 342.216 368.859 340.081C368.277 339.111 368.665 337.946 369.635 337.17C370.412 336.587 371.382 336.005 372.158 335.423C372.934 334.84 373.904 334.84 374.68 335.617C375.456 336.393 375.65 337.17 375.068 338.14C374.874 338.528 374.68 338.723 374.68 339.111C374.292 339.887 374.68 340.275 375.456 340.469C376.233 340.664 377.009 340.47 377.591 340.664C380.113 341.052 381.277 342.799 380.501 345.322C380.113 346.681 379.531 347.846 378.949 349.204C378.367 350.369 377.785 351.34 377.203 352.31C376.815 353.087 376.233 354.057 376.233 355.028C376.427 355.028 376.815 355.222 377.009 355.028C377.203 355.028 377.397 354.834 377.397 354.834C380.113 353.475 382.636 352.116 384.964 350.369C386.71 349.01 388.457 347.652 390.203 346.293C391.755 344.934 393.502 343.575 395.054 342.216C395.442 342.022 395.636 341.634 396.218 341.44C396.412 341.246 396.8 341.44 397.188 341.44C397.188 341.828 397.382 342.216 397.188 342.411C396.8 342.993 396.218 343.575 395.636 343.963C393.114 346.099 390.591 348.234 388.263 350.369C385.74 352.504 383.412 354.834 380.695 356.581C379.143 357.551 377.397 358.522 375.65 359.104C373.904 359.881 372.158 360.075 370.8 358.522C369.635 357.163 370.412 355.804 371.188 354.445C372.934 351.728 374.68 349.01 376.427 346.293C377.009 345.516 377.397 344.352 376.427 343.769C375.845 343.381 374.68 343.381 373.904 343.575C373.128 343.769 372.546 344.546 371.964 345.128C366.531 351.146 360.516 356.581 354.113 361.433C352.754 362.404 351.396 363.569 349.844 364.345C348.292 365.122 346.545 365.898 344.799 365.898C344.217 365.898 343.441 365.704 342.859 365.122C342.277 364.539 342.277 363.763 342.083 362.986C341.889 362.21 341.694 361.433 341.5 360.657C340.918 360.851 340.336 361.045 339.754 361.433C338.59 362.404 337.426 363.569 336.067 364.345C333.739 365.704 331.605 367.451 329.276 369.004C328.112 369.78 326.948 370.363 325.784 370.945C324.619 371.333 323.455 372.109 322.291 371.721C321.709 371.527 321.321 371.139 320.933 370.751C319.963 369.586 319.575 368.033 320.157 366.674C320.351 365.898 320.739 365.122 321.127 364.345C321.127 364.151 321.127 363.763 320.933 363.569C320.739 363.375 320.351 363.569 320.157 363.763C319.769 364.151 319.381 364.539 318.992 364.927C317.246 366.48 315.306 368.033 313.56 369.392C311.231 371.333 308.709 371.527 305.992 370.557C304.634 369.974 303.858 370.362 303.082 371.527C301.335 373.856 299.783 375.992 297.843 378.127C296.873 379.097 295.902 380.068 294.738 380.844C293.574 381.621 292.022 382.009 290.469 382.397C287.559 382.98 285.036 381.621 283.678 379.097C283.29 378.321 282.902 378.709 282.514 378.903C278.827 380.844 277.275 384.338 276.305 388.221C273.782 396.956 271.26 405.691 267.185 413.843C265.245 417.725 263.111 421.802 260.588 425.296C259.036 427.237 256.901 428.984 254.961 430.343C252.827 431.895 251.08 430.925 250.304 428.596C249.528 426.072 249.916 423.549 250.886 421.025C254.961 409.185 260.588 398.12 268.738 388.609C269.902 387.25 271.066 385.891 272.036 384.533C272.618 383.95 273.006 383.174 273.394 382.397C274.753 378.709 275.917 374.827 277.275 371.139C277.469 370.751 277.275 370.557 277.275 370.168C276.887 370.362 276.693 370.362 276.499 370.751C274.559 373.08 272.424 375.603 270.484 377.933C268.738 379.874 267.185 381.621 265.439 383.562C264.663 384.533 263.693 385.503 262.722 386.474C262.14 387.056 261.364 387.444 260.588 387.25C259.812 387.25 259.23 386.862 258.648 386.474C258.066 386.085 257.484 385.309 257.096 384.727C256.707 383.95 256.707 383.174 256.901 382.397C257.095 381.427 257.096 380.65 257.29 379.68C257.484 378.709 257.678 377.933 258.066 376.962C259.036 374.245 260.588 371.915 261.752 369.198C263.887 364.539 266.021 360.075 267.767 355.222C268.544 352.893 269.126 350.369 269.126 348.04C269.126 342.993 267.573 342.993 263.693 344.74C262.14 345.322 260.782 346.293 259.618 347.457C257.096 350.175 254.379 352.893 253.215 356.581C252.245 359.686 251.08 362.598 250.11 365.704C249.916 366.286 249.722 366.868 249.722 367.257C249.722 367.839 249.916 368.421 250.11 369.004C250.692 368.81 251.468 368.81 252.051 368.421C254.961 365.704 257.096 362.598 258.066 358.716C258.26 357.939 258.842 356.969 257.29 356.969C257.096 356.969 256.707 356.192 256.901 355.998C257.678 354.64 258.454 353.281 259.424 352.116C259.812 351.728 260.976 351.534 261.752 351.728C262.14 351.922 262.528 352.893 262.722 353.475C262.917 353.863 262.722 354.251 262.722 354.64C261.364 361.822 257.872 367.645 251.663 371.721C249.528 373.08 248.364 372.498 247.976 370.168C247.782 368.227 247.588 366.286 248.17 364.345C250.304 355.61 254.767 348.234 262.14 342.799C262.14 342.217 263.305 341.634 263.887 341.246ZM251.274 426.849C251.274 427.043 251.469 427.237 251.663 427.625C251.857 428.013 252.245 428.207 252.439 428.207C252.827 428.207 253.021 428.013 253.215 427.819C253.991 427.237 254.573 426.46 255.155 425.49C260.2 418.114 263.887 409.767 266.797 401.226C268.155 397.538 269.32 393.85 270.678 390.356C270.872 389.774 270.29 389.385 269.708 389.579C269.514 389.579 269.514 389.774 269.514 389.774C266.603 393.462 263.887 397.15 261.364 401.032C257.872 406.661 254.767 412.873 252.633 419.084C251.857 421.219 250.498 424.519 251.274 426.849ZM290.857 378.127C291.052 378.127 291.246 378.127 291.44 378.321C292.604 378.515 293.574 377.933 294.544 377.35C295.514 376.574 296.679 375.603 297.455 374.633C298.231 373.662 299.007 372.498 299.783 371.527C300.365 370.751 301.141 369.78 301.141 368.81C301.141 367.839 299.977 367.063 299.395 366.48C299.395 366.48 299.395 366.48 299.201 366.286C299.007 366.092 298.813 366.092 298.619 366.092C298.231 366.092 298.037 366.286 297.843 366.48C295.708 368.421 293.38 370.168 291.828 372.692C291.828 372.886 291.634 372.886 291.634 373.08C291.246 373.662 290.857 374.439 290.663 375.215C290.469 375.798 290.275 376.38 290.275 376.962C290.275 377.35 290.469 377.933 290.857 378.321C290.663 377.933 290.663 377.933 290.857 378.127ZM303.082 364.345C303.276 363.957 303.276 363.763 303.276 363.569C303.276 363.375 303.082 363.18 303.082 362.986C302.888 363.18 302.694 363.375 302.694 363.763C302.694 363.763 302.888 363.957 303.082 364.345Z" fill="#FE5F55"/>
<path fill-rule="evenodd" clip-rule="evenodd" d="M218.677 10.6761C221.393 10.0937 223.528 10.2878 224.886 11.0643C226.244 11.8407 227.214 13.0054 227.602 14.5583C227.796 15.5288 227.796 16.4994 227.408 17.2758C227.02 18.2464 226.632 18.8287 226.05 19.411C225.468 19.9934 224.498 20.5757 222.946 21.3521C224.692 21.7403 225.856 22.1286 226.632 22.7109C227.408 23.2932 227.99 24.2638 228.767 25.8167C229.543 27.7578 230.319 28.9224 231.095 29.5048C231.871 30.0871 232.841 30.2812 234.005 30.0871C234.394 30.0871 234.394 30.0871 234.588 30.2812C234.588 30.4753 234.394 30.6694 234.2 30.6694C231.095 31.2518 229.155 31.64 228.378 31.64C227.602 31.64 227.02 30.4753 226.244 28.5342C225.468 26.5931 224.886 25.2343 224.304 24.2638C223.722 23.4873 223.14 22.7109 222.363 22.5168C221.587 22.1286 220.423 22.1286 218.871 22.5168C218.289 22.7109 217.707 22.905 216.93 23.0991C216.93 23.8756 217.124 24.4579 217.319 25.2343C217.901 28.146 218.289 29.893 218.677 30.6694C218.871 31.4459 219.259 32.0282 219.841 32.4164C220.229 32.8046 221.005 32.8046 221.975 32.6105C222.363 32.6105 222.557 32.6105 222.557 32.8046C222.557 32.9987 222.363 33.1929 221.975 33.1929L213.438 34.9398C213.05 35.134 212.662 34.9398 212.662 34.7457C212.662 34.5516 212.856 34.3575 213.244 34.3575C214.02 34.1634 214.602 33.9693 214.99 33.5811C215.184 33.1929 215.378 32.8046 215.572 32.2223C215.572 31.64 215.572 30.6694 215.184 29.3106L214.408 25.8167L213.244 20.5757C212.662 17.8581 212.274 16.1111 211.886 15.3347C211.497 14.5583 211.303 13.9759 210.915 13.7818C210.527 13.5877 209.751 13.3936 208.781 13.5877C208.587 13.5877 208.393 13.5877 208.393 13.3936C208.393 13.1995 208.587 13.0054 208.975 13.0054L218.677 10.6761ZM217.901 11.6466C216.93 11.8407 215.766 12.2289 214.602 12.8113C215.184 15.917 215.572 18.4405 215.96 20.1875C216.154 20.7698 216.348 21.5462 216.542 22.3227C218.677 21.7403 220.229 21.3521 221.199 20.7698C222.169 20.3816 222.946 19.6051 223.528 18.4405C224.11 17.4699 224.304 16.3053 223.916 15.1406C223.722 13.9759 222.946 12.8113 221.975 12.0348C221.199 11.4525 219.841 11.2584 217.901 11.6466Z" fill="#FE5F55"/>
<path fill-rule="evenodd" clip-rule="evenodd" d="M233.035 8.15264L236.14 7.76442L240.797 6.98798C241.379 6.98798 241.573 6.98798 241.767 7.18209C241.767 7.3762 241.573 7.57031 241.379 7.57031C240.215 7.95853 239.438 8.54086 239.244 9.3173C239.05 10.0937 239.438 12.8113 240.215 17.664C240.603 19.411 240.797 21.3521 241.379 23.4874C241.767 25.6226 242.155 26.9813 242.349 27.3696C242.543 27.7578 242.737 28.146 243.125 28.3401C243.513 28.5342 244.095 28.7283 245.065 28.5342C245.259 28.5342 245.453 28.5342 245.453 28.7283C245.453 28.9224 245.453 29.1166 245.065 29.1166L240.797 29.893L237.304 30.4753C236.916 30.4753 236.722 30.4753 236.722 30.2812C236.722 30.0871 236.722 29.893 237.11 29.893C238.08 29.6989 238.662 29.3107 238.856 28.5342C238.856 27.7578 238.662 25.6226 238.08 22.1286C237.498 18.6346 236.916 15.7229 236.528 13.5877C236.14 11.4525 235.752 10.0937 235.364 9.70552C234.976 9.3173 234.394 9.12319 233.423 9.12319C233.035 9.12319 232.841 8.92908 232.841 8.73497C232.647 8.15264 232.841 8.15264 233.035 8.15264Z" fill="#FE5F55"/>
<path fill-rule="evenodd" clip-rule="evenodd" d="M252.827 4.85278C253.603 4.65867 254.379 4.85278 255.155 4.85278C255.931 5.04689 256.902 5.241 257.872 5.62922C258.066 5.241 258.26 4.85278 258.26 4.65867C258.26 4.46456 258.454 4.27045 258.648 4.27045C258.648 4.27045 258.842 4.27045 259.036 4.46456C259.23 4.85278 259.424 5.62922 259.618 6.79388L260.394 9.89965C260.394 10.0938 260.394 10.2879 260.006 10.2879C259.812 10.2879 259.812 10.2879 259.618 10.0938C258.842 8.73498 257.678 7.57032 256.513 6.79388C255.155 6.01744 253.797 5.62922 252.439 5.82333C251.081 6.01744 250.11 6.59977 249.528 7.57032C248.946 8.54087 248.752 9.31732 248.946 10.2879C249.14 11.4525 249.528 12.229 250.498 12.8113C251.275 13.3936 253.021 13.7819 255.349 14.1701C257.096 14.5583 258.454 14.7524 259.424 15.1406C260.394 15.5288 261.17 16.1112 261.946 16.8876C262.723 17.6641 263.111 18.6346 263.305 19.7993C263.499 21.5463 263.111 23.2933 261.752 24.8461C260.394 26.399 258.842 27.3696 256.708 27.7578C254.767 27.9519 252.827 27.7578 250.692 26.7872C250.304 27.1755 250.11 27.5637 250.11 27.9519C250.11 28.3401 249.916 28.5342 249.722 28.5342C249.528 28.5342 249.334 28.3401 249.334 27.9519C249.14 27.5637 248.752 25.4285 247.976 21.5463C247.976 21.3522 248.17 21.3522 248.364 21.3522C248.558 21.3522 248.752 21.3522 248.752 21.7404C251.08 25.8167 253.797 27.7578 256.902 27.3696C258.454 27.1755 259.618 26.5931 260.394 25.4285C261.17 24.4579 261.364 23.2933 261.17 22.1286C260.976 21.3522 260.782 20.5757 260.2 19.9934C259.618 19.4111 259.036 18.8287 258.066 18.6346C257.29 18.2464 255.931 18.0523 254.185 17.6641C251.857 17.2758 250.498 16.8876 249.528 16.3053C248.752 15.723 247.976 15.1406 247.588 14.3642C247.2 13.5877 246.812 13.0054 246.812 12.229C246.618 10.6761 247.006 9.31731 248.364 7.95854C249.14 6.01744 250.692 5.241 252.827 4.85278Z" fill="#FE5F55"/>
<path fill-rule="evenodd" clip-rule="evenodd" d="M265.439 3.29989C266.409 3.29989 267.573 3.10578 268.932 3.10578C270.484 3.10578 273.006 2.91167 276.305 2.52345C279.603 2.13522 281.932 1.94111 282.902 1.747C283.872 1.55289 285.036 1.35878 286.783 1.16467C286.977 1.94111 287.171 2.71756 287.365 3.68811C287.559 4.65866 287.753 5.4351 287.753 5.82332V6.01743C287.753 6.21154 287.753 6.40565 287.365 6.40565C287.171 6.40565 287.171 6.40565 286.977 6.21154C286.783 6.21154 286.589 5.82332 286.201 5.24099C285.619 4.46455 284.842 3.68811 284.26 3.29989C283.484 2.91167 282.902 2.71756 282.126 2.52345C281.35 2.52345 279.798 2.52345 277.275 2.71756C277.275 4.46455 277.469 6.40565 277.663 8.54087C278.439 15.7229 278.827 19.9934 279.409 21.3521C279.798 22.7109 280.962 23.0991 282.902 22.905C283.29 22.905 283.678 22.905 283.678 23.0991C283.678 23.2932 283.484 23.4874 283.096 23.4874L272.618 24.4579C272.424 24.4579 272.23 24.4579 272.23 24.2638C272.23 24.0697 272.424 23.8756 273.006 23.8756C273.976 23.8756 274.559 23.4874 275.141 22.905C275.723 22.3227 275.917 21.5463 275.917 20.7698C275.917 19.9934 275.723 17.4699 275.335 13.3936C274.947 9.89964 274.559 6.40565 273.976 3.10578C273.006 3.10578 272.424 3.10578 272.036 3.29989C269.514 3.494 267.767 4.27044 266.797 5.24099C265.827 6.40565 265.245 7.3762 265.051 8.15264C265.051 8.34676 264.857 8.54087 264.663 8.54087C264.469 8.54087 264.469 8.54087 264.275 8.34676C264.275 6.98798 264.275 5.24099 264.469 2.91167C265.051 3.494 265.245 3.29989 265.439 3.29989Z" fill="#FE5F55"/>
<path fill-rule="evenodd" clip-rule="evenodd" d="M301.529 0.388251C304.634 0.19414 307.351 1.3588 309.485 3.49402C311.619 5.62923 312.783 8.15266 312.978 11.0643C313.172 14.1701 312.007 16.8876 309.873 19.4111C307.739 21.9345 305.022 23.2933 301.918 23.4874C298.813 23.6815 296.291 22.7109 294.156 20.5757C292.022 18.4405 290.858 15.723 290.664 12.229C290.664 10.6761 291.052 8.9291 291.828 7.18211C292.604 5.24101 293.962 3.68813 295.708 2.52346C297.261 1.16469 299.201 0.388251 301.529 0.388251ZM301.141 1.16469C299.395 1.16469 298.037 1.94113 297.067 3.1058C296.097 4.27046 295.32 5.62923 294.738 7.18211C294.35 8.73499 294.156 10.2879 294.156 11.4525C294.156 13.3936 294.544 15.1406 295.32 17.0817C295.902 19.0228 296.873 20.3816 298.231 21.1581C299.395 21.9345 300.753 22.3227 302.112 22.3227C304.44 22.3227 306.186 21.1581 307.351 18.8287C308.515 16.4994 309.097 13.976 309.097 11.2584C308.903 8.54088 308.127 6.01745 306.768 4.07635C305.216 2.13524 303.47 1.16469 301.141 1.16469Z" fill="#FE5F55"/>
<path fill-rule="evenodd" clip-rule="evenodd" d="M326.948 0C329.664 0 331.799 0.582331 332.963 1.55288C334.127 2.71754 334.903 3.88221 334.903 5.43509C334.903 6.40564 334.709 7.37619 334.127 8.15263C333.545 8.92907 332.963 9.51141 332.381 9.89963C331.605 10.2878 330.635 10.6761 329.082 11.0643C330.635 11.8407 331.799 12.4231 332.381 13.1995C332.963 13.9759 333.351 15.1406 333.739 16.6935C334.127 18.8287 334.709 20.1875 335.291 20.7698C335.874 21.5462 336.844 21.9345 338.008 21.9345C338.396 21.9345 338.396 22.1286 338.396 22.3227C338.396 22.5168 338.202 22.7109 337.814 22.7109C334.709 22.7109 332.769 22.5168 331.993 22.3227C331.411 22.1286 330.829 20.9639 330.441 18.8287C330.053 16.6935 329.858 15.3347 329.47 14.3642C329.082 13.3936 328.694 12.6172 327.918 12.229C327.142 11.6466 325.978 11.4525 324.426 11.4525C323.843 11.4525 323.261 11.4525 322.485 11.6466C322.485 12.4231 322.485 13.1995 322.291 13.7818C322.291 16.6935 322.291 18.6346 322.291 19.411C322.291 20.1875 322.679 20.9639 323.067 21.3521C323.455 21.7404 324.231 21.9345 325.008 21.9345C325.396 21.9345 325.59 22.1286 325.59 22.3227C325.59 22.5168 325.396 22.7109 324.814 22.7109H316.47C315.888 22.7109 315.694 22.5168 315.694 22.3227C315.694 22.1286 315.888 21.9345 316.276 21.9345C317.052 21.9345 317.828 21.7404 318.022 21.5462C318.41 21.3521 318.604 20.9639 318.799 20.3816C318.993 19.7993 319.187 18.8287 319.187 17.4699V13.9759V8.73496C319.187 6.01742 319.187 4.27043 318.993 3.29988C318.799 2.32932 318.605 1.74699 318.41 1.55288C318.022 1.16466 317.44 0.970552 316.276 0.776441C316.082 0.776441 315.888 0.582331 315.888 0.388221C315.888 0.19411 316.082 0.19411 316.664 0.19411L326.948 0ZM325.978 0.582331C325.008 0.582331 323.843 0.776441 322.485 0.970552C322.291 4.07632 322.291 6.59975 322.291 8.34674C322.291 8.92908 322.291 9.70552 322.485 10.6761C324.62 10.6761 326.366 10.482 327.336 10.2878C328.5 10.0937 329.276 9.51141 330.053 8.54085C330.829 7.5703 331.217 6.59975 331.217 5.43509C331.217 4.07632 330.829 3.10577 330.053 2.13521C329.276 1.16466 327.918 0.582331 325.978 0.582331Z" fill="#FE5F55"/>
<path fill-rule="evenodd" clip-rule="evenodd" d="M350.62 0.582336H351.396C352.561 3.29988 354.113 7.76442 355.859 14.1701C357.023 18.2464 357.993 20.7698 358.382 21.7404C358.77 22.7109 359.74 23.2932 360.904 23.4874C361.292 23.4874 361.486 23.6815 361.486 23.8756C361.486 24.0697 361.292 24.0697 361.098 24.0697H360.904C359.934 23.8756 358.576 23.8756 357.023 23.6815C354.501 23.4874 352.949 23.4874 352.172 23.4874C351.784 23.4874 351.59 23.2932 351.59 23.0991C351.59 22.905 351.784 22.905 351.978 22.905C352.949 22.905 353.531 22.7109 353.919 22.5168C354.307 22.3227 354.501 21.9345 354.501 21.3521C354.501 20.7698 354.307 19.6051 353.725 17.664L352.949 14.7524C352.366 14.7524 349.65 14.5583 344.993 14.3642C343.635 17.4699 342.859 19.411 342.859 20.1875C342.859 20.9639 343.053 21.3521 343.635 21.7404C344.217 22.1286 344.799 22.3227 345.381 22.3227C345.769 22.3227 345.963 22.5168 345.963 22.7109C345.963 22.7109 345.963 22.905 345.769 22.905C344.023 22.7109 342.859 22.7109 342.471 22.5168C340.53 22.3227 339.366 22.3227 338.59 22.3227C338.202 22.3227 338.008 22.1286 338.008 21.9345C338.008 21.7404 338.202 21.7404 338.59 21.5463C339.948 21.3521 340.918 20.5757 341.695 19.0228C342.471 17.4699 343.635 14.5583 345.381 10.482C347.128 7.57031 348.874 3.88221 350.62 0.582336ZM349.65 4.27043C348.486 6.40565 347.128 9.51141 345.381 13.3936C346.545 13.3936 347.322 13.3936 347.904 13.3936L352.755 13.7818C352.366 12.6172 351.978 11.0643 351.202 8.92908C350.426 6.59976 349.844 5.04687 349.65 4.27043Z" fill="#FE5F55"/>
<path fill-rule="evenodd" clip-rule="evenodd" d="M365.367 1.94112L370.412 2.52345C370.994 3.494 371.964 5.04689 373.516 7.1821L378.367 13.976L383.024 20.5757C383.412 18.6346 383.606 15.9171 383.994 12.6172C384.188 10.0938 384.382 8.54087 384.382 7.76443C384.382 6.98799 383.994 6.21155 383.412 5.62922C382.83 5.04688 382.054 4.65866 381.083 4.46455C380.695 4.46455 380.501 4.27044 380.501 4.07633C380.501 3.88222 380.501 3.88222 380.695 3.88222C380.889 3.88222 381.472 3.88222 383.024 3.88222C384.382 4.07633 385.74 4.07633 386.711 4.27044L389.039 4.46455H389.427C389.815 4.46455 390.009 4.65866 390.009 4.85277C390.009 5.04688 389.815 5.04688 389.427 5.04688C388.263 5.04688 387.487 5.241 386.905 5.62922C386.322 6.01744 385.934 6.59977 385.74 7.57032C385.546 8.54087 385.158 11.4525 384.576 16.4994L383.412 25.4285C383.412 25.8167 383.218 26.0108 383.024 26.0108C383.024 26.0108 382.83 26.0108 382.83 25.8167C382.83 25.8167 382.248 25.0402 381.472 23.8756C380.695 22.7109 379.725 21.3522 378.561 19.6052C377.397 17.8582 376.427 16.4994 375.845 15.5288C374.292 13.3936 373.516 11.8407 373.128 11.4525C371.77 9.51142 370.8 8.34676 370.606 7.76443C370.412 7.37621 370.218 7.1821 370.218 7.1821C370.024 7.1821 370.024 7.37621 370.024 7.76443L369.83 10.482C369.441 13.7818 369.247 16.4994 369.247 18.4405C369.247 20.3816 369.247 21.5463 369.441 21.9345C369.635 22.3227 369.83 22.7109 370.412 23.0991C370.8 23.4874 371.382 23.6815 371.964 23.8756C372.74 23.8756 373.128 24.0697 373.128 24.4579C373.128 24.652 372.934 24.652 372.546 24.652L364.397 23.6815C364.008 23.6815 363.814 23.4874 363.814 23.2933C363.814 23.0991 364.008 22.905 364.397 23.0991C365.755 23.2933 366.725 23.0991 367.307 22.5168C367.889 21.9345 368.277 20.5757 368.471 18.6346L369.053 12.6172C369.441 9.1232 369.635 6.98799 369.441 6.40566C369.247 5.82333 369.053 4.85277 368.471 3.88222C367.889 2.91167 367.113 2.32934 366.337 2.13523C365.949 2.13523 365.755 1.94112 365.755 1.74701C364.591 1.94112 364.979 1.94112 365.367 1.94112Z" fill="#FE5F55"/>
<path fill-rule="evenodd" clip-rule="evenodd" d="M393.696 4.85278C394.666 5.04689 395.83 5.241 397.188 5.62922C398.741 6.01745 401.263 6.40567 404.368 6.988C407.666 7.57033 409.995 7.76444 410.965 7.95855C411.935 7.95855 413.099 8.15266 414.845 8.34677C414.845 9.12321 414.845 10.0938 414.651 10.8702C414.651 11.8408 414.457 12.6172 414.457 13.0054V13.1995C414.457 13.3936 414.263 13.5877 414.069 13.5877C413.875 13.5877 413.875 13.5877 413.681 13.3936C413.487 13.1995 413.487 13.0054 413.099 12.4231C412.711 11.4525 412.129 10.6761 411.547 10.0938C410.965 9.51143 410.383 9.12321 409.607 8.9291C408.83 8.73499 407.278 8.34677 404.95 7.95855C404.562 9.70554 404.174 11.6466 403.786 13.7819C402.621 20.9639 402.039 25.2344 402.233 26.5931C402.427 27.9519 403.397 28.7284 405.144 29.1166C405.532 29.1166 405.726 29.3107 405.726 29.5048C405.726 29.6989 405.532 29.893 404.95 29.6989L394.666 27.9519C394.472 27.9519 394.278 27.7578 394.278 27.5637C394.278 27.3696 394.666 27.3696 395.054 27.3696C396.024 27.5637 396.606 27.3696 397.382 26.9814C397.964 26.5931 398.353 26.0108 398.741 25.0403C398.935 24.2638 399.323 21.7404 400.099 17.6641C400.681 14.1701 401.069 10.6761 401.457 7.37622C400.681 7.18211 399.905 6.988 399.711 6.988C397.188 6.59978 395.442 6.79389 394.278 7.76444C393.114 8.54088 392.337 9.31732 391.949 10.0938C391.755 10.2879 391.755 10.482 391.367 10.482C391.173 10.482 391.173 10.482 390.979 10.2879C391.173 8.9291 391.755 7.18211 392.532 5.04689C393.114 4.85278 393.502 4.85278 393.696 4.85278Z" fill="#FE5F55"/>
<path fill-rule="evenodd" clip-rule="evenodd" d="M418.92 9.12317L422.219 10.0937C423.383 10.4819 426.294 11.0643 431.144 12.0348C434.249 12.6172 435.801 13.0054 435.801 13.0054C435.801 14.3641 435.801 16.1111 435.607 18.4405C435.607 18.4405 435.413 18.6346 435.413 18.4405C435.413 18.4405 435.219 18.4405 435.219 18.2464C434.637 16.8876 434.249 15.7229 433.667 14.9465C433.085 14.17 432.503 13.5877 431.921 13.1995C431.338 12.8113 430.174 12.423 428.428 12.0348C426.876 11.6466 425.517 11.4525 424.547 11.4525C424.353 11.4525 424.353 11.6466 424.353 12.0348C424.353 12.0348 424.353 12.2289 424.159 12.423C423.771 13.1995 423.383 15.7229 422.413 19.6051C422.413 19.7992 422.413 19.9933 422.219 20.3816C422.995 20.5757 423.577 20.7698 423.965 20.7698C425.323 21.158 426.488 21.158 427.07 20.7698C427.846 20.5757 428.622 19.6051 429.204 18.4405C429.398 18.2464 429.398 18.0522 429.592 18.2464C429.786 18.2464 429.786 18.4405 429.786 18.8287L429.592 19.411C429.398 20.1875 429.01 21.158 428.816 22.1286C428.428 23.6814 428.234 25.0402 428.04 26.2049C428.04 26.5931 427.846 26.7872 427.652 26.7872C427.458 26.7872 427.458 26.5931 427.458 26.399C427.458 25.0402 427.264 24.0697 426.682 23.2932C426.099 22.5168 424.547 21.9345 422.025 21.3521C421.831 22.1286 421.443 23.4873 421.055 25.2343C420.472 27.5637 420.278 29.1165 420.278 29.6989C420.278 30.2812 420.667 30.8635 421.249 31.4459C421.831 32.0282 422.801 32.4164 424.353 32.6105C428.622 33.5811 431.726 32.6105 433.667 29.893C433.861 29.5048 434.055 29.5048 434.249 29.5048C434.443 29.5048 434.443 29.6989 434.443 29.893C434.443 30.0871 434.443 30.0871 434.249 30.2812C434.055 30.4753 433.861 31.2517 433.279 32.6105C433.085 32.8046 432.697 33.7752 432.115 35.134L425.129 33.5811C424.159 33.387 422.607 32.9987 420.667 32.6105C418.726 32.0282 416.98 31.64 415.622 31.4459C414.069 31.0576 413.293 30.8635 413.293 30.8635V30.6694C413.293 30.4753 413.487 30.2812 413.875 30.4753C415.04 30.6694 416.01 30.6694 416.592 30.0871C417.174 29.5048 417.562 27.9519 418.144 25.4284L418.92 21.9345L419.696 18.8287C419.89 18.2464 420.084 16.8876 420.278 15.1406C420.667 13.3936 420.667 12.2289 420.667 12.0348C420.667 11.8407 420.472 11.4525 420.278 11.2584C420.084 10.8702 419.502 10.4819 418.532 10.0937C418.338 9.89961 418.144 9.7055 418.144 9.7055C418.338 9.12317 418.532 9.12317 418.92 9.12317Z" fill="#FE5F55"/>
<path d="M228.961 70.0739C181.422 70.0739 142.809 126.948 142.809 196.828C142.809 266.902 181.422 323.582 228.961 323.582C276.499 323.582 315.112 266.708 315.112 196.828C315.112 126.754 276.499 70.0739 228.961 70.0739ZM228.961 319.506C212.662 319.506 199.273 264.572 199.273 196.634C199.273 128.695 212.468 73.762 228.961 73.762C245.259 73.762 258.648 128.695 258.648 196.634C258.648 264.572 245.259 319.506 228.961 319.506Z" fill="#FE5F55"/>
<path d="M557.849 70.0739C510.31 70.0739 471.698 126.948 471.698 196.828C471.698 266.902 510.31 323.582 557.849 323.582C605.387 323.582 644 266.708 644 196.828C644 126.754 605.581 70.0739 557.849 70.0739ZM557.849 319.506C541.55 319.506 528.162 264.572 528.162 196.634C528.162 128.695 541.356 73.762 557.849 73.762C574.148 73.762 587.536 128.695 587.536 196.634C587.536 264.572 574.342 319.506 557.849 319.506Z" fill="#FE5F55"/>
<path d="M128.839 160.335V77.6441C128.839 77.6441 100.51 64.4446 62.4791 72.7914C24.4484 81.1381 -2.91047 127.53 0.194078 199.74C1.74635 233.903 12.4182 268.649 34.5382 295.242C44.4339 307.083 56.076 316.206 71.2107 320.088C80.9124 322.611 91.9723 324.164 101.868 323.388C106.525 323 110.988 322.223 115.256 320.67C117.003 320.088 128.839 316.206 128.839 314.265C128.839 300.095 128.839 240.891 128.839 240.891C128.839 240.891 103.032 258.749 74.7033 239.726C46.3743 220.703 32.0157 180.717 31.2396 142.477C30.8515 128.307 30.2694 112.39 36.6725 99.1904C40.1652 92.0083 46.1802 85.6027 53.5535 82.691C62.4791 79.197 73.5391 80.5558 82.0766 84.6321C90.4201 88.7084 96.2411 96.4729 101.48 103.655C108.659 113.36 113.704 124.037 119.525 134.713C123.988 142.865 127.675 151.018 128.839 160.335Z" fill="#FE5F55"/>
<path d="M318.798 70.0739H374.68L416.786 316.982C416.786 316.982 429.98 258.749 432.115 183.822C431.726 167.129 433.085 110.449 415.428 70.0739C441.622 70.0739 468.011 70.0739 468.011 70.0739L419.502 323.776H365.561L318.798 70.0739Z" fill="#FE5F55"/>
</g>
<defs>
<clipPath id="clip0_2003_386">
<rect width="644" height="468" fill="white"/>
</clipPath>
</defs>
</svg>
