<svg xmlns="http://www.w3.org/2000/svg" width="179" height="62" viewBox="0 0 179 62" fill="none"><path d="M10.2168 9.81866C10.2168 6.76642 11.4817 4.01122 13.5148 2.04468H0V20.5181C0 28.8311 4.83825 33.2738 12.7121 33.2738C20.5859 33.2738 25.3794 28.8311 25.3794 20.5181V19.7295C24.0504 20.3133 22.5819 20.6385 21.0366 20.6385C15.0614 20.6385 10.2168 15.7938 10.2168 9.81866Z" fill="#E9EBFF"></path><path d="M21.0148 0.828369C18.5823 0.828369 16.3763 1.79499 14.7555 3.36336C13.0642 4.99958 12.0105 7.2926 12.0105 9.83272C12.0105 14.8054 16.0409 18.8358 21.0136 18.8358C22.299 18.8358 23.5204 18.5644 24.6279 18.0791C27.8004 16.6862 30.0179 13.52 30.0179 9.83272C30.0179 4.86003 25.9862 0.829647 21.0148 0.829647V0.828369Z" fill="#6459FF"></path><path d="M57.0437 2.06128H61.7065V20.5347C61.7065 28.8477 56.9118 33.2904 49.0392 33.2904C41.1667 33.2904 36.3271 28.8477 36.3271 20.5347V2.06128H40.99V21.3272C40.99 26.9567 43.2766 29.0244 49.0392 29.0244C54.8019 29.0244 57.045 26.9567 57.045 21.3272V2.06128H57.0437Z" fill="#E9EBFF"></path><path d="M84.4447 33.253V11.6262H88.9309V33.253H84.4447Z" fill="#E9EBFF"></path><path d="M110.33 14.6925C112.089 16.7154 112.969 19.3989 112.969 22.6983C112.969 25.9976 112.089 28.6798 110.33 30.6592C108.526 32.682 106.151 33.6935 103.117 33.6935C99.5535 33.6935 97.0032 32.0662 95.463 28.8104V40.73H90.9768V11.6262H95.463V16.6271C95.463 13.2868 99.5971 11.7005 103.248 11.7005C106.196 11.7005 108.571 12.7119 110.33 14.6913V14.6925ZM108.439 22.6983C108.439 17.9919 106.328 15.7923 101.885 15.7923C97.4423 15.7923 95.2876 17.9919 95.2876 22.6983C95.2876 27.4046 97.3553 29.6042 101.885 29.6042C106.415 29.6042 108.439 27.4046 108.439 22.6983Z" fill="#E9EBFF"></path><path d="M114.181 33.2534V2.06787H118.667V33.2534H114.181Z" fill="#E9EBFF"></path><path d="M168.089 11.6262H172.575V33.253H168.089V28.8987C168.089 31.9151 164.042 33.6935 160.479 33.6935C157.445 33.6935 155.07 32.682 153.309 30.6592C151.506 28.6798 150.626 25.9963 150.626 22.6983C150.626 19.4002 151.506 16.7167 153.265 14.6925C154.98 12.7132 157.355 11.7018 160.302 11.7018C163.954 11.7018 168.088 13.6376 168.088 16.5848V11.6288L168.089 11.6262ZM168.309 22.697C168.309 17.9906 166.242 15.791 161.712 15.791C157.182 15.791 155.158 17.9906 155.158 22.697C155.158 27.4034 157.269 29.6029 161.712 29.6029C166.155 29.6029 168.309 27.4034 168.309 22.697Z" fill="#E9EBFF"></path><path d="M174.514 33.2534V2.06787H179V33.2534H174.514Z" fill="#E9EBFF"></path><path d="M73.2587 11.6431H72.3664C66.025 11.6431 63.1124 15.2215 63.1124 21.9175V33.2545H67.6779V21.2799C67.6779 17.9421 68.6804 16.1612 71.0605 15.4545C72.1999 15.1165 73.4239 15.1165 74.5634 15.4545C76.9434 16.1625 77.9459 17.9421 77.9459 21.2799V33.2545H82.5115V21.9175C82.5115 15.2215 79.5988 11.6431 73.2575 11.6431H73.2587Z" fill="#E9EBFF"></path><path d="M151.376 15.2152C150.639 15.1627 149.894 15.242 149.182 15.4533C146.802 16.1613 145.799 17.9409 145.799 21.2787V33.2533H141.234V21.9163C141.234 15.2203 144.146 11.6418 150.488 11.6418H151.38L151.376 15.2139V15.2152Z" fill="#E9EBFF"></path><path d="M129.509 33.2533H130.401C136.742 33.2533 139.655 29.6749 139.655 22.9789V11.6418H135.09V23.6165C135.09 26.9542 134.087 28.7351 131.707 29.4419C130.568 29.7799 129.344 29.7799 128.204 29.4419C125.824 28.7339 124.822 26.9542 124.822 23.6165V11.6418H120.256V22.9789C120.256 29.6749 123.169 33.2533 129.51 33.2533H129.509Z" fill="#E9EBFF"></path><path d="M86.6904 8.1338C88.3676 8.1338 89.7273 6.77415 89.7273 5.09693C89.7273 3.41971 88.3676 2.06006 86.6904 2.06006C85.0132 2.06006 83.6536 3.41971 83.6536 5.09693C83.6536 6.77415 85.0132 8.1338 86.6904 8.1338Z" fill="#6459FF"></path><path d="M49.5092 51.2685V51.9381C49.5092 53.5475 48.9331 54.9071 47.7821 56.0159C46.6298 57.1246 45.0883 57.679 43.1563 57.679C41.2244 57.679 39.5587 57.0286 38.2707 55.7291C36.9827 54.4283 36.3387 52.8369 36.3387 50.9549C36.3387 49.0728 36.9827 47.4814 38.2707 46.1806C39.5587 44.8811 41.1872 44.2307 43.1563 44.2307C44.3573 44.2307 45.4596 44.5226 46.4633 45.1039C47.4658 45.6864 48.2404 46.461 48.7858 47.4263L47.6335 48.0959C47.2251 47.3034 46.6183 46.6722 45.813 46.2011C45.0089 45.7312 44.123 45.4956 43.1563 45.4956C41.5342 45.4956 40.2091 46.0231 39.181 47.0743C38.1529 48.1279 37.6395 49.4223 37.6395 50.9574C37.6395 52.4925 38.1529 53.7882 39.181 54.8393C40.2091 55.893 41.5342 56.4192 43.1563 56.4192C44.6172 56.4192 45.7874 56.0504 46.6682 55.3143C47.5478 54.5768 48.0484 53.6396 48.1726 52.4989H43.0091V51.2724H49.5105L49.5092 51.2685Z" fill="#E9EBFF"></path><path d="M66.1775 56.2757C65.23 57.2104 64.0752 57.6777 62.713 57.6777C61.3507 57.6777 60.1959 57.2104 59.2485 56.2757C58.301 55.3411 57.8273 54.185 57.8273 52.8112C57.8273 51.4375 58.301 50.2814 59.2485 49.3468C60.1959 48.4121 61.3507 47.9448 62.713 47.9448C64.0752 47.9448 65.23 48.4121 66.1775 49.3468C67.1249 50.2814 67.5986 51.4362 67.5986 52.8112C67.5986 54.1863 67.1249 55.3411 66.1775 56.2757ZM60.1114 55.4205C60.8168 56.1336 61.6836 56.4883 62.713 56.4883C63.7423 56.4883 64.6078 56.1336 65.3132 55.4205C66.02 54.7086 66.3733 53.838 66.3733 52.8112C66.3733 51.7844 66.02 50.9126 65.3132 50.2007C64.6078 49.4889 63.741 49.1329 62.713 49.1329C61.6849 49.1329 60.8181 49.4889 60.1114 50.2007C59.4059 50.9126 59.0526 51.7832 59.0526 52.8112C59.0526 53.8393 59.4059 54.7086 60.1114 55.4205Z" fill="#E9EBFF"></path><path d="M76.3698 47.9436H77.5964V57.6905H76.3698V56.0057C75.6759 57.1208 74.635 57.6777 73.2485 57.6777C72.1218 57.6777 71.2333 57.3346 70.5829 56.6458C69.9325 55.9583 69.6073 55.0339 69.6073 53.8688V47.9436H70.8338V53.8688C70.8338 54.6985 71.054 55.3425 71.4932 55.8008C71.9323 56.2591 72.5545 56.4883 73.3599 56.4883C74.2509 56.4883 74.9756 56.2067 75.5338 55.6433C76.0907 55.08 76.3698 54.2094 76.3698 53.0328V47.9436Z" fill="#E9EBFF"></path><path d="M85.2219 47.9436C86.547 47.9436 87.6762 48.4135 88.6121 49.3558C89.5467 50.2968 90.014 51.4491 90.014 52.8113C90.014 54.1735 89.5455 55.3258 88.6121 56.2668C87.6762 57.2079 86.547 57.679 85.2219 57.679C83.5741 57.679 82.3233 56.9979 81.4693 55.6356V61.1717H80.2428V47.9462H81.4693V49.9895C82.3233 48.6273 83.5741 47.9462 85.2219 47.9462V47.9436ZM82.5281 55.4206C83.2336 56.1337 84.1003 56.4883 85.1297 56.4883C86.1591 56.4883 87.0245 56.1337 87.73 55.4206C88.4354 54.7087 88.7901 53.8381 88.7901 52.8113C88.7901 51.7845 88.4367 50.9126 87.73 50.2008C87.0245 49.4889 86.1578 49.133 85.1297 49.133C84.1016 49.133 83.2349 49.4889 82.5281 50.2008C81.8227 50.9126 81.4693 51.7832 81.4693 52.8113C81.4693 53.8394 81.8227 54.7087 82.5281 55.4206Z" fill="#E9EBFF"></path><path d="M53.4205 49.7079C53.9902 48.5812 54.9684 47.9436 56.3549 47.9436V49.1317C55.5125 49.1317 54.8135 49.4544 54.2565 49.9498C53.6996 50.4453 53.4205 51.225 53.4205 52.2902V57.6764H52.194V47.9436H53.4205V49.7079Z" fill="#E9EBFF"></path></svg>